{
  "source": "C:\\Users\\Peter\\Desktop\\stuff\\MIUN\\quantitative_research\\video_compression\\videos\\BVI-HD\\BVI-HD_CDVL_videos\\ORIG\\Typing_1920x1080_60fps.mp4",
  "output": "C:\\Users\\Peter\\Desktop\\stuff\\MIUN\\quantitative_research\\video_compression\\compressed_videos\\BVI-HD\\hevc\\2\\Typing_1920x1080_60fps_hevc.mp4",
  "codec": "hevc",
  "ok": "Input #0, mov,mp4,m4a,3gp,3g2,mj2, from 'C:\\Users\\Peter\\Desktop\\stuff\\MIUN\\quantitative_research\\video_compression\\videos\\BVI-HD\\BVI-HD_CDVL_videos\\ORIG\\Typing_1920x1080_60fps.mp4':\n  Metadata:\n    major_brand     : isom\n    minor_version   : 512\n    compatible_brands: isomiso2avc1mp41\n    encoder         : Lavf54.28.101\n  Duration: 00:00:05.00, start: 0.000000, bitrate: 203453 kb/s\n  Stream #0:0[0x1](und): Video: h264 (High 4:4:4 Predictive) (avc1 / 0x31637661), yuv420p(progressive), 1920x1080, 203448 kb/s, 60 fps, 60 tbr, 60 tbn (default)\n    Metadata:\n      handler_name    : VideoHandler\n      vendor_id       : [0][0][0][0]\n[out#0/mp4 @ 000002ad6b84a600] Codec AVOption b:a (set bitrate (in bits/s)) has not been used for any stream. The most likely reason is either wrong type (e.g. a video option with no video streams) or that it is a private option of some decoder which was not actually used for any stream.\nStream mapping:\n  Stream #0:0 -> #0:0 (h264 (native) -> hevc (libx265))\nPress [q] to stop, [?] for help\n[libx265 @ 000002ad6be100c0] Unknown option: \"aq-mode.\nx265 [info]: HEVC encoder version 4.1+190-8f11c33ac\nx265 [info]: build info [Windows][GCC 15.1.0][64 bit] 10bit\nx265 [info]: using cpu capabilities: MMX2 SSE2Fast LZCNT SSSE3 SSE4.2 AVX FMA3 BMI2 AVX2\nx265 [info]: Main 10 profile, Level-4.1 (Main tier)\nx265 [info]: Thread pool created using 12 threads\nx265 [info]: Slices                              : 1\nx265 [info]: frame threads / pool features       : 3 / wpp(17 rows)\nx265 [info]: Coding QT: max CU size, min CU size : 64 / 8\nx265 [info]: Residual QT: max TU size, max depth : 32 / 1 inter / 1 intra\nx265 [info]: ME / range / subpel / merge         : star / 57 / 3 / 3\nx265 [info]: Keyframe min / max / scenecut / bias  : 25 / 250 / 40 / 5.00 \nx265 [info]: Lookahead / bframes / badapt        : 25 / 4 / 2\nx265 [info]: b-pyramid / weightp / weightb       : 1 / 1 / 0\nx265 [info]: References / ref-limit  cu / depth  : 4 / on / on\nx265 [info]: AQ: mode / str / qg-size / cu-tree  : 2 / 1.0 / 32 / 1\nx265 [info]: Rate Control / qCompress            : ABR-2000 kbps / 0.60\nx265 [info]: VBV/HRD buffer / max-rate / init    : 2000 / 2000 / 0.750\nx265 [info]: tools: rect limit-modes rd=4 psy-rd=2.00 rdoq=2 psy-rdoq=1.00\nx265 [info]: tools: rskip mode=1 signhide tmvp strong-intra-smoothing lslices=4\nx265 [info]: tools: deblock sao dhdr10-info\nOutput #0, mp4, to 'C:\\Users\\Peter\\Desktop\\stuff\\MIUN\\quantitative_research\\video_compression\\compressed_videos\\BVI-HD\\hevc\\2\\Typing_1920x1080_60fps_hevc.mp4':\n  Metadata:\n    major_brand     : isom\n    minor_version   : 512\n    compatible_brands: isomiso2avc1mp41\n    encoder         : Lavf62.3.100\n  Stream #0:0(und): Video: hevc (hev1 / 0x31766568), yuv420p10le(tv, progressive), 1920x1080, q=2-31, 2000 kb/s, 60 fps, 15360 tbn (default)\n    Metadata:\n      encoder         : Lavc62.11.100 libx265\n      handler_name    : VideoHandler\n      vendor_id       : [0][0][0][0]\n    Side data:\n      cpb: bitrate max/min/avg: 2000000/0/2000000 buffer size: 2000000 vbv_delay: N/A\nframe=    0 fps=0.0 q=0.0 size=       0KiB time=N/A bitrate=N/A speed=N/A elapsed=0:00:00.51    \nframe=    0 fps=0.0 q=0.0 size=       0KiB time=N/A bitrate=N/A speed=N/A elapsed=0:00:01.10    \nframe=    0 fps=0.0 q=0.0 size=       0KiB time=N/A bitrate=N/A speed=N/A elapsed=0:00:01.61    \nframe=    0 fps=0.0 q=0.0 size=       0KiB time=N/A bitrate=N/A speed=N/A elapsed=0:00:02.15    \nframe=    0 fps=0.0 q=0.0 size=       0KiB time=N/A bitrate=N/A speed=N/A elapsed=0:00:02.69    \nframe=    0 fps=0.0 q=0.0 size=       0KiB time=N/A bitrate=N/A speed=N/A elapsed=0:00:03.22    \nframe=    0 fps=0.0 q=0.0 size=       0KiB time=N/A bitrate=N/A speed=N/A elapsed=0:00:03.74    \nframe=    0 fps=0.0 q=0.0 size=       0KiB time=N/A bitrate=N/A speed=N/A elapsed=0:00:04.26    \nframe=    0 fps=0.0 q=0.0 size=       0KiB time=N/A bitrate=N/A speed=N/A elapsed=0:00:04.77    \nframe=    0 fps=0.0 q=0.0 size=       0KiB time=N/A bitrate=N/A speed=N/A elapsed=0:00:05.30    \nframe=    0 fps=0.0 q=0.0 size=       0KiB time=N/A bitrate=N/A speed=N/A elapsed=0:00:05.81    \nframe=    0 fps=0.0 q=0.0 size=       0KiB time=N/A bitrate=N/A speed=N/A elapsed=0:00:06.35    \nframe=    0 fps=0.0 q=0.0 size=       0KiB time=N/A bitrate=N/A speed=N/A elapsed=0:00:06.88    \nframe=    1 fps=0.1 q=37.2 size=       0KiB time=-00:00:00.01 bitrate=N/A speed=N/A elapsed=0:00:07.41    \nframe=    2 fps=0.3 q=43.8 size=       0KiB time=00:00:00.00 bitrate=N/A speed=   0x elapsed=0:00:07.94    \nframe=    3 fps=0.4 q=45.4 size=       0KiB time=00:00:00.01 bitrate=  21.1kbits/s speed=0.00197x elapsed=0:00:08.47    \nframe=    4 fps=0.4 q=45.5 size=       0KiB time=00:00:00.03 bitrate=  10.6kbits/s speed=0.0037x elapsed=0:00:09.00    \nframe=    4 fps=0.4 q=45.5 size=       0KiB time=00:00:00.03 bitrate=  10.6kbits/s speed=0.0035x elapsed=0:00:09.52    \nframe=    4 fps=0.4 q=45.5 size=       0KiB time=00:00:00.03 bitrate=  10.6kbits/s speed=0.00332x elapsed=0:00:10.04    \nframe=    4 fps=0.4 q=45.5 size=       0KiB time=00:00:00.03 bitrate=  10.6kbits/s speed=0.00316x elapsed=0:00:10.54    \nframe=    5 fps=0.5 q=42.4 size=       0KiB time=00:00:00.05 bitrate=   7.0kbits/s speed=0.00452x elapsed=0:00:11.06    \nframe=    5 fps=0.4 q=42.4 size=       0KiB time=00:00:00.05 bitrate=   7.0kbits/s speed=0.00431x elapsed=0:00:11.60    \nframe=    5 fps=0.4 q=42.4 size=       0KiB time=00:00:00.05 bitrate=   7.0kbits/s speed=0.00412x elapsed=0:00:12.12    \nframe=    6 fps=0.5 q=41.4 size=       0KiB time=00:00:00.06 bitrate=   5.3kbits/s speed=0.00527x elapsed=0:00:12.66    \nframe=    6 fps=0.5 q=41.4 size=       0KiB time=00:00:00.06 bitrate=   5.3kbits/s speed=0.00506x elapsed=0:00:13.18    \nframe=    7 fps=0.5 q=34.2 size=       0KiB time=00:00:00.08 bitrate=   4.2kbits/s speed=0.00609x elapsed=0:00:13.69    \nframe=    7 fps=0.5 q=34.2 size=       0KiB time=00:00:00.08 bitrate=   4.2kbits/s speed=0.00583x elapsed=0:00:14.28    \nframe=    7 fps=0.5 q=34.2 size=       0KiB time=00:00:00.08 bitrate=   4.2kbits/s speed=0.0056x elapsed=0:00:14.86    \nframe=    8 fps=0.5 q=37.3 size=       0KiB time=00:00:00.10 bitrate=   3.5kbits/s speed=0.00648x elapsed=0:00:15.43    \nframe=    8 fps=0.5 q=37.3 size=       0KiB time=00:00:00.10 bitrate=   3.5kbits/s speed=0.00627x elapsed=0:00:15.94    \nframe=    8 fps=0.5 q=37.3 size=       0KiB time=00:00:00.10 bitrate=   3.5kbits/s speed=0.00607x elapsed=0:00:16.47    \nframe=    8 fps=0.5 q=37.3 size=       0KiB time=00:00:00.10 bitrate=   3.5kbits/s speed=0.00588x elapsed=0:00:16.99    \nframe=    8 fps=0.5 q=37.3 size=       0KiB time=00:00:00.10 bitrate=   3.5kbits/s speed=0.00571x elapsed=0:00:17.50    \nframe=    8 fps=0.4 q=37.3 size=       0KiB time=00:00:00.10 bitrate=   3.5kbits/s speed=0.00554x elapsed=0:00:18.06    \nframe=    9 fps=0.5 q=37.4 size=       0KiB time=00:00:00.11 bitrate=   3.0kbits/s speed=0.00627x elapsed=0:00:18.60    \nframe=    9 fps=0.5 q=37.4 size=       0KiB time=00:00:00.11 bitrate=   3.0kbits/s speed=0.00608x elapsed=0:00:19.17    \nframe=    9 fps=0.5 q=37.4 size=       0KiB time=00:00:00.11 bitrate=   3.0kbits/s speed=0.00592x elapsed=0:00:19.72    \nframe=   10 fps=0.5 q=39.3 size=       0KiB time=00:00:00.13 bitrate=   2.6kbits/s speed=0.00658x elapsed=0:00:20.26    \nframe=   10 fps=0.5 q=39.3 size=       0KiB time=00:00:00.13 bitrate=   2.6kbits/s speed=0.00641x elapsed=0:00:20.79    \nframe=   11 fps=0.5 q=33.5 size=       0KiB time=00:00:00.15 bitrate=   2.3kbits/s speed=0.00703x elapsed=0:00:21.33    \nframe=   12 fps=0.5 q=38.8 size=       0KiB time=00:00:00.16 bitrate=   2.1kbits/s speed=0.00761x elapsed=0:00:21.89    \nframe=   12 fps=0.5 q=38.8 size=       0KiB time=00:00:00.16 bitrate=   2.1kbits/s speed=0.00742x elapsed=0:00:22.44    \nframe=   12 fps=0.5 q=38.8 size=       0KiB time=00:00:00.16 bitrate=   2.1kbits/s speed=0.00726x elapsed=0:00:22.97    \nframe=   12 fps=0.5 q=38.8 size=       0KiB time=00:00:00.16 bitrate=   2.1kbits/s speed=0.00709x elapsed=0:00:23.50    \nframe=   12 fps=0.5 q=38.8 size=       0KiB time=00:00:00.16 bitrate=   2.1kbits/s speed=0.00693x elapsed=0:00:24.05    \nframe=   12 fps=0.5 q=38.8 size=       0KiB time=00:00:00.16 bitrate=   2.1kbits/s speed=0.00676x elapsed=0:00:24.64    \nframe=   12 fps=0.5 q=38.8 size=       0KiB time=00:00:00.16 bitrate=   2.1kbits/s speed=0.00661x elapsed=0:00:25.20    \nframe=   13 fps=0.5 q=38.6 size=       0KiB time=00:00:00.18 bitrate=   1.9kbits/s speed=0.00711x elapsed=0:00:25.79    \nframe=   13 fps=0.5 q=38.6 size=       0KiB time=00:00:00.18 bitrate=   1.9kbits/s speed=0.00696x elapsed=0:00:26.35    \nframe=   14 fps=0.5 q=38.6 size=       0KiB time=00:00:00.20 bitrate=   1.8kbits/s speed=0.00742x elapsed=0:00:26.93    \nframe=   14 fps=0.5 q=38.6 size=       0KiB time=00:00:00.20 bitrate=   1.8kbits/s speed=0.00728x elapsed=0:00:27.47    \nframe=   14 fps=0.5 q=38.6 size=       0KiB time=00:00:00.20 bitrate=   1.8kbits/s speed=0.00713x elapsed=0:00:28.04    \nframe=   14 fps=0.5 q=38.6 size=       0KiB time=00:00:00.20 bitrate=   1.8kbits/s speed=0.00699x elapsed=0:00:28.59    \nframe=   15 fps=0.5 q=33.0 size=       0KiB time=00:00:00.21 bitrate=   1.6kbits/s speed=0.00744x elapsed=0:00:29.10    \nframe=   15 fps=0.5 q=33.0 size=       0KiB time=00:00:00.21 bitrate=   1.6kbits/s speed=0.00731x elapsed=0:00:29.63    \nframe=   15 fps=0.5 q=33.0 size=       0KiB time=00:00:00.21 bitrate=   1.6kbits/s speed=0.00718x elapsed=0:00:30.19    \nframe=   15 fps=0.5 q=33.0 size=       0KiB time=00:00:00.21 bitrate=   1.6kbits/s speed=0.00705x elapsed=0:00:30.73    \nframe=   15 fps=0.5 q=33.0 size=       0KiB time=00:00:00.21 bitrate=   1.6kbits/s speed=0.00692x elapsed=0:00:31.28    \nframe=   16 fps=0.5 q=37.7 size=       0KiB time=00:00:00.23 bitrate=   1.5kbits/s speed=0.00733x elapsed=0:00:31.84    \nframe=   16 fps=0.5 q=37.7 size=       0KiB time=00:00:00.23 bitrate=   1.5kbits/s speed=0.00721x elapsed=0:00:32.37    \nframe=   16 fps=0.5 q=37.7 size=       0KiB time=00:00:00.23 bitrate=   1.5kbits/s speed=0.00709x elapsed=0:00:32.92    \nframe=   17 fps=0.5 q=37.3 size=       0KiB time=00:00:00.25 bitrate=   1.4kbits/s speed=0.00747x elapsed=0:00:33.48    \nframe=   17 fps=0.5 q=37.3 size=       0KiB time=00:00:00.25 bitrate=   1.4kbits/s speed=0.00733x elapsed=0:00:34.10    \nframe=   17 fps=0.5 q=37.3 size=       0KiB time=00:00:00.25 bitrate=   1.4kbits/s speed=0.00719x elapsed=0:00:34.75    \nframe=   17 fps=0.5 q=37.3 size=       0KiB time=00:00:00.25 bitrate=   1.4kbits/s speed=0.00707x elapsed=0:00:35.35    \nframe=   17 fps=0.5 q=37.3 size=       0KiB time=00:00:00.25 bitrate=   1.4kbits/s speed=0.00696x elapsed=0:00:35.91    \nframe=   17 fps=0.5 q=37.3 size=       0KiB time=00:00:00.25 bitrate=   1.4kbits/s speed=0.00686x elapsed=0:00:36.46    \nframe=   17 fps=0.5 q=37.3 size=       0KiB time=00:00:00.25 bitrate=   1.4kbits/s speed=0.00675x elapsed=0:00:37.05    \nframe=   17 fps=0.5 q=37.3 size=       0KiB time=00:00:00.25 bitrate=   1.4kbits/s speed=0.00664x elapsed=0:00:37.67    \nframe=   17 fps=0.4 q=37.3 size=       0KiB time=00:00:00.25 bitrate=   1.4kbits/s speed=0.00653x elapsed=0:00:38.29    \nframe=   17 fps=0.4 q=37.3 size=       0KiB time=00:00:00.25 bitrate=   1.4kbits/s speed=0.00644x elapsed=0:00:38.84    \nframe=   18 fps=0.5 q=37.2 size=       0KiB time=00:00:00.26 bitrate=   1.3kbits/s speed=0.00677x elapsed=0:00:39.40    \nframe=   19 fps=0.5 q=31.5 size=       0KiB time=00:00:00.28 bitrate=   1.2kbits/s speed=0.00709x elapsed=0:00:39.94    \nframe=   19 fps=0.5 q=31.5 size=       0KiB time=00:00:00.28 bitrate=   1.2kbits/s speed=0.007x elapsed=0:00:40.48    \nframe=   20 fps=0.5 q=36.8 size=       0KiB time=00:00:00.30 bitrate=   1.2kbits/s speed=0.00731x elapsed=0:00:41.01    \nframe=   20 fps=0.5 q=36.8 size=       0KiB time=00:00:00.30 bitrate=   1.2kbits/s speed=0.00722x elapsed=0:00:41.55    \nframe=   20 fps=0.5 q=36.8 size=       0KiB time=00:00:00.30 bitrate=   1.2kbits/s speed=0.00713x elapsed=0:00:42.07    \nframe=   20 fps=0.5 q=36.8 size=       0KiB time=00:00:00.30 bitrate=   1.2kbits/s speed=0.00704x elapsed=0:00:42.61    \nframe=   21 fps=0.5 q=37.4 size=       0KiB time=00:00:00.31 bitrate=   1.1kbits/s speed=0.00734x elapsed=0:00:43.12    \nframe=   21 fps=0.5 q=37.4 size=       0KiB time=00:00:00.31 bitrate=   1.1kbits/s speed=0.00725x elapsed=0:00:43.65    \nframe=   22 fps=0.5 q=38.1 size=       0KiB time=00:00:00.33 bitrate=   1.1kbits/s speed=0.00754x elapsed=0:00:44.18    \nframe=   22 fps=0.5 q=38.1 size=       0KiB time=00:00:00.33 bitrate=   1.1kbits/s speed=0.00746x elapsed=0:00:44.70    \nframe=   22 fps=0.5 q=38.1 size=       0KiB time=00:00:00.33 bitrate=   1.1kbits/s speed=0.00737x elapsed=0:00:45.22    \nframe=   23 fps=0.5 q=30.1 size=       0KiB time=00:00:00.35 bitrate=   1.0kbits/s speed=0.00765x elapsed=0:00:45.73    \nframe=   24 fps=0.5 q=35.9 size=       0KiB time=00:00:00.36 bitrate=   1.0kbits/s speed=0.00793x elapsed=0:00:46.25    \nframe=   24 fps=0.5 q=35.9 size=       0KiB time=00:00:00.36 bitrate=   1.0kbits/s speed=0.00784x elapsed=0:00:46.78    \nframe=   24 fps=0.5 q=35.9 size=       0KiB time=00:00:00.36 bitrate=   1.0kbits/s speed=0.00775x elapsed=0:00:47.31    \nframe=   25 fps=0.5 q=36.2 size=       0KiB time=00:00:00.38 bitrate=   0.9kbits/s speed=0.00801x elapsed=0:00:47.84    \nframe=   25 fps=0.5 q=36.2 size=       0KiB time=00:00:00.38 bitrate=   0.9kbits/s speed=0.00792x elapsed=0:00:48.39    \nframe=   26 fps=0.5 q=36.3 size=       0KiB time=00:00:00.40 bitrate=   0.9kbits/s speed=0.00818x elapsed=0:00:48.91    \nframe=   26 fps=0.5 q=36.3 size=       0KiB time=00:00:00.40 bitrate=   0.9kbits/s speed=0.00809x elapsed=0:00:49.44    \nframe=   26 fps=0.5 q=36.3 size=       0KiB time=00:00:00.40 bitrate=   0.9kbits/s speed=0.00801x elapsed=0:00:49.95    \nframe=   27 fps=0.5 q=36.3 size=       0KiB time=00:00:00.41 bitrate=   0.8kbits/s speed=0.00825x elapsed=0:00:50.47    \nframe=   28 fps=0.5 q=28.7 size=       0KiB time=00:00:00.43 bitrate=   0.8kbits/s speed=0.0085x elapsed=0:00:50.98    \nframe=   29 fps=0.6 q=36.0 size=       0KiB time=00:00:00.45 bitrate=   0.8kbits/s speed=0.00874x elapsed=0:00:51.50    \nframe=   29 fps=0.6 q=36.0 size=       0KiB time=00:00:00.45 bitrate=   0.8kbits/s speed=0.00865x elapsed=0:00:52.03    \nframe=   30 fps=0.6 q=37.1 size=       0KiB time=00:00:00.46 bitrate=   0.8kbits/s speed=0.00888x elapsed=0:00:52.55    \nframe=   30 fps=0.6 q=37.1 size=       0KiB time=00:00:00.46 bitrate=   0.8kbits/s speed=0.00879x elapsed=0:00:53.06    \nframe=   31 fps=0.6 q=36.2 size=       0KiB time=00:00:00.48 bitrate=   0.7kbits/s speed=0.00902x elapsed=0:00:53.58    \nframe=   31 fps=0.6 q=36.2 size=       0KiB time=00:00:00.48 bitrate=   0.7kbits/s speed=0.00893x elapsed=0:00:54.11    \nframe=   31 fps=0.6 q=36.2 size=       0KiB time=00:00:00.48 bitrate=   0.7kbits/s speed=0.00885x elapsed=0:00:54.63    \nframe=   31 fps=0.6 q=36.2 size=       0KiB time=00:00:00.48 bitrate=   0.7kbits/s speed=0.00876x elapsed=0:00:55.16    \nframe=   31 fps=0.6 q=36.2 size=       0KiB time=00:00:00.48 bitrate=   0.7kbits/s speed=0.00868x elapsed=0:00:55.69    \nframe=   32 fps=0.6 q=36.0 size=       0KiB time=00:00:00.50 bitrate=   0.7kbits/s speed=0.00889x elapsed=0:00:56.21    \nframe=   32 fps=0.6 q=36.0 size=       0KiB time=00:00:00.50 bitrate=   0.7kbits/s speed=0.00881x elapsed=0:00:56.73    \nframe=   32 fps=0.6 q=36.0 size=       0KiB time=00:00:00.50 bitrate=   0.7kbits/s speed=0.00873x elapsed=0:00:57.26    \nframe=   33 fps=0.6 q=28.3 size=       0KiB time=00:00:00.51 bitrate=   0.7kbits/s speed=0.00894x elapsed=0:00:57.77    \nframe=   34 fps=0.6 q=33.5 size=       0KiB time=00:00:00.53 bitrate=   0.7kbits/s speed=0.00915x elapsed=0:00:58.30    \nframe=   34 fps=0.6 q=33.5 size=       0KiB time=00:00:00.53 bitrate=   0.7kbits/s speed=0.00906x elapsed=0:00:58.83    \nframe=   35 fps=0.6 q=36.1 size=       0KiB time=00:00:00.55 bitrate=   0.6kbits/s speed=0.00926x elapsed=0:00:59.36    \nframe=   35 fps=0.6 q=36.1 size=       0KiB time=00:00:00.55 bitrate=   0.6kbits/s speed=0.00918x elapsed=0:00:59.89    \nframe=   35 fps=0.6 q=36.1 size=       0KiB time=00:00:00.55 bitrate=   0.6kbits/s speed=0.0091x elapsed=0:01:00.42    \nframe=   36 fps=0.6 q=35.2 size=       0KiB time=00:00:00.56 bitrate=   0.6kbits/s speed=0.00929x elapsed=0:01:00.96    \nframe=   37 fps=0.6 q=35.3 size=       0KiB time=00:00:00.58 bitrate=   0.6kbits/s speed=0.00949x elapsed=0:01:01.48    \nframe=   37 fps=0.6 q=35.3 size=       0KiB time=00:00:00.58 bitrate=   0.6kbits/s speed=0.00941x elapsed=0:01:02.01    \nframe=   37 fps=0.6 q=35.3 size=       0KiB time=00:00:00.58 bitrate=   0.6kbits/s speed=0.00932x elapsed=0:01:02.56    \nframe=   38 fps=0.6 q=27.2 size=       0KiB time=00:00:00.60 bitrate=   0.6kbits/s speed=0.00951x elapsed=0:01:03.08    \nframe=   38 fps=0.6 q=27.2 size=       0KiB time=00:00:00.60 bitrate=   0.6kbits/s speed=0.00943x elapsed=0:01:03.59    \nframe=   38 fps=0.6 q=27.2 size=       0KiB time=00:00:00.60 bitrate=   0.6kbits/s speed=0.00936x elapsed=0:01:04.11    \nframe=   39 fps=0.6 q=33.7 size=       0KiB time=00:00:00.61 bitrate=   0.6kbits/s speed=0.00954x elapsed=0:01:04.63    \nframe=   39 fps=0.6 q=33.7 size=       0KiB time=00:00:00.61 bitrate=   0.6kbits/s speed=0.00947x elapsed=0:01:05.14    \nframe=   40 fps=0.6 q=35.3 size=       0KiB time=00:00:00.63 bitrate=   0.6kbits/s speed=0.00964x elapsed=0:01:05.67    \nframe=   40 fps=0.6 q=35.3 size=       0KiB time=00:00:00.63 bitrate=   0.6kbits/s speed=0.00957x elapsed=0:01:06.18    \nframe=   40 fps=0.6 q=35.3 size=       0KiB time=00:00:00.63 bitrate=   0.6kbits/s speed=0.00949x elapsed=0:01:06.70    \nframe=   41 fps=0.6 q=35.1 size=       0KiB time=00:00:00.65 bitrate=   0.5kbits/s speed=0.00967x elapsed=0:01:07.24    \nframe=   42 fps=0.6 q=35.3 size=       0KiB time=00:00:00.66 bitrate=   0.5kbits/s speed=0.00984x elapsed=0:01:07.76    \nframe=   42 fps=0.6 q=35.3 size=       0KiB time=00:00:00.66 bitrate=   0.5kbits/s speed=0.00976x elapsed=0:01:08.30    \nframe=   43 fps=0.6 q=27.8 size=       0KiB time=00:00:00.68 bitrate=   0.5kbits/s speed=0.00993x elapsed=0:01:08.82    \nframe=   43 fps=0.6 q=27.8 size=       0KiB time=00:00:00.68 bitrate=   0.5kbits/s speed=0.00986x elapsed=0:01:09.32    \nframe=   44 fps=0.6 q=34.3 size=       0KiB time=00:00:00.70 bitrate=   0.5kbits/s speed=0.01x elapsed=0:01:09.85    \nframe=   45 fps=0.6 q=35.2 size=       0KiB time=00:00:00.71 bitrate=   0.5kbits/s speed=0.0102x elapsed=0:01:10.38    \nframe=   45 fps=0.6 q=35.2 size=       0KiB time=00:00:00.71 bitrate=   0.5kbits/s speed=0.0101x elapsed=0:01:10.91    \nframe=   46 fps=0.6 q=33.3 size=       0KiB time=00:00:00.71 bitrate=   0.5kbits/s speed=0.01x elapsed=0:01:11.44    \nframe=   46 fps=0.6 q=33.3 size=       0KiB time=00:00:00.73 bitrate=   0.5kbits/s speed=0.0102x elapsed=0:01:12.01    \nframe=   46 fps=0.6 q=33.3 size=       0KiB time=00:00:00.73 bitrate=   0.5kbits/s speed=0.0101x elapsed=0:01:12.53    \nframe=   46 fps=0.6 q=33.3 size=       0KiB time=00:00:00.73 bitrate=   0.5kbits/s speed=0.01x elapsed=0:01:13.06    \nframe=   46 fps=0.6 q=33.3 size=       0KiB time=00:00:00.73 bitrate=   0.5kbits/s speed=0.00996x elapsed=0:01:13.65    \nframe=   47 fps=0.6 q=33.3 size=       0KiB time=00:00:00.75 bitrate=   0.5kbits/s speed=0.0101x elapsed=0:01:14.24    \nframe=   47 fps=0.6 q=33.3 size=       0KiB time=00:00:00.75 bitrate=   0.5kbits/s speed=0.01x elapsed=0:01:14.80    \nframe=   47 fps=0.6 q=33.3 size=       0KiB time=00:00:00.75 bitrate=   0.5kbits/s speed=0.00996x elapsed=0:01:15.32    \nframe=   47 fps=0.6 q=33.3 size=       0KiB time=00:00:00.75 bitrate=   0.5kbits/s speed=0.00989x elapsed=0:01:15.85    \nframe=   48 fps=0.6 q=26.5 size=       0KiB time=00:00:00.76 bitrate=   0.5kbits/s speed=0.01x elapsed=0:01:16.38    \nframe=   48 fps=0.6 q=26.5 size=       0KiB time=00:00:00.76 bitrate=   0.5kbits/s speed=0.00997x elapsed=0:01:16.92    \nframe=   48 fps=0.6 q=26.5 size=       0KiB time=00:00:00.76 bitrate=   0.5kbits/s speed=0.0099x elapsed=0:01:17.44    \nframe=   49 fps=0.6 q=33.1 size=       0KiB time=00:00:00.78 bitrate=   0.4kbits/s speed=0.01x elapsed=0:01:17.99    \nframe=   49 fps=0.6 q=33.1 size=       0KiB time=00:00:00.78 bitrate=   0.4kbits/s speed=0.00997x elapsed=0:01:18.54    \nframe=   50 fps=0.6 q=33.4 size=       0KiB time=00:00:00.80 bitrate=   0.4kbits/s speed=0.0101x elapsed=0:01:19.10    \nframe=   50 fps=0.6 q=33.4 size=       0KiB time=00:00:00.80 bitrate=   0.4kbits/s speed=0.01x elapsed=0:01:19.69    \nframe=   50 fps=0.6 q=33.4 size=       0KiB time=00:00:00.80 bitrate=   0.4kbits/s speed=0.00997x elapsed=0:01:20.23    \nframe=   51 fps=0.6 q=33.1 size=       0KiB time=00:00:00.81 bitrate=   0.4kbits/s speed=0.0101x elapsed=0:01:20.77    \nframe=   51 fps=0.6 q=33.1 size=       0KiB time=00:00:00.81 bitrate=   0.4kbits/s speed=0.01x elapsed=0:01:21.30    \nframe=   52 fps=0.6 q=33.3 size=       0KiB time=00:00:00.83 bitrate=   0.4kbits/s speed=0.0102x elapsed=0:01:21.84    \nframe=   53 fps=0.6 q=26.7 size=       0KiB time=00:00:00.85 bitrate=   0.4kbits/s speed=0.0103x elapsed=0:01:22.37    \nframe=   53 fps=0.6 q=26.7 size=       0KiB time=00:00:00.85 bitrate=   0.4kbits/s speed=0.0102x elapsed=0:01:22.93    \nframe=   53 fps=0.6 q=26.7 size=       0KiB time=00:00:00.85 bitrate=   0.4kbits/s speed=0.0102x elapsed=0:01:23.45    \nframe=   53 fps=0.6 q=26.7 size=       0KiB time=00:00:00.85 bitrate=   0.4kbits/s speed=0.0101x elapsed=0:01:24.00    \nframe=   53 fps=0.6 q=26.7 size=       0KiB time=00:00:00.85 bitrate=   0.4kbits/s speed=0.0101x elapsed=0:01:24.53    \nframe=   53 fps=0.6 q=26.7 size=       0KiB time=00:00:00.85 bitrate=   0.4kbits/s speed=0.00999x elapsed=0:01:25.10    \nframe=   53 fps=0.6 q=26.7 size=       0KiB time=00:00:00.85 bitrate=   0.4kbits/s speed=0.00993x elapsed=0:01:25.61    \nframe=   54 fps=0.6 q=33.2 size=       0KiB time=00:00:00.86 bitrate=   0.4kbits/s speed=0.0101x elapsed=0:01:26.18    \nframe=   54 fps=0.6 q=33.2 size=       0KiB time=00:00:00.86 bitrate=   0.4kbits/s speed=0.00999x elapsed=0:01:26.74    \nframe=   54 fps=0.6 q=33.2 size=       0KiB time=00:00:00.86 bitrate=   0.4kbits/s speed=0.00993x elapsed=0:01:27.29    \nframe=   54 fps=0.6 q=33.2 size=       0KiB time=00:00:00.86 bitrate=   0.4kbits/s speed=0.00986x elapsed=0:01:27.90    \nframe=   54 fps=0.6 q=33.2 size=       0KiB time=00:00:00.86 bitrate=   0.4kbits/s speed=0.0098x elapsed=0:01:28.42    \nframe=   55 fps=0.6 q=33.3 size=       0KiB time=00:00:00.88 bitrate=   0.4kbits/s speed=0.00993x elapsed=0:01:28.94    \nframe=   55 fps=0.6 q=33.3 size=       0KiB time=00:00:00.88 bitrate=   0.4kbits/s speed=0.00987x elapsed=0:01:29.47    \nframe=   55 fps=0.6 q=33.3 size=       0KiB time=00:00:00.88 bitrate=   0.4kbits/s speed=0.00981x elapsed=0:01:30.00    \nframe=   55 fps=0.6 q=33.3 size=       0KiB time=00:00:00.88 bitrate=   0.4kbits/s speed=0.00975x elapsed=0:01:30.55    \nframe=   55 fps=0.6 q=33.3 size=       0KiB time=00:00:00.88 bitrate=   0.4kbits/s speed=0.0097x elapsed=0:01:31.09    \nframe=   56 fps=0.6 q=33.1 size=       0KiB time=00:00:00.90 bitrate=   0.4kbits/s speed=0.00982x elapsed=0:01:31.61    \nframe=   56 fps=0.6 q=33.1 size=       0KiB time=00:00:00.90 bitrate=   0.4kbits/s speed=0.00977x elapsed=0:01:32.15    \nframe=   56 fps=0.6 q=33.1 size=       0KiB time=00:00:00.90 bitrate=   0.4kbits/s speed=0.00971x elapsed=0:01:32.69    \nframe=   57 fps=0.6 q=32.4 size=       0KiB time=00:00:00.91 bitrate=   0.4kbits/s speed=0.00983x elapsed=0:01:33.22    \nframe=   57 fps=0.6 q=32.4 size=       0KiB time=00:00:00.91 bitrate=   0.4kbits/s speed=0.00978x elapsed=0:01:33.75    \nframe=   58 fps=0.6 q=26.3 size=       0KiB time=00:00:00.93 bitrate=   0.4kbits/s speed=0.0099x elapsed=0:01:34.29    \nframe=   59 fps=0.6 q=31.9 size=       0KiB time=00:00:00.95 bitrate=   0.4kbits/s speed=0.01x elapsed=0:01:34.79    \nframe=   59 fps=0.6 q=31.9 size=       0KiB time=00:00:00.95 bitrate=   0.4kbits/s speed=0.00996x elapsed=0:01:35.33    \nframe=   59 fps=0.6 q=31.9 size=       0KiB time=00:00:00.95 bitrate=   0.4kbits/s speed=0.00991x elapsed=0:01:35.88    \nframe=   59 fps=0.6 q=31.9 size=       0KiB time=00:00:00.95 bitrate=   0.4kbits/s speed=0.00985x elapsed=0:01:36.40    \nframe=   60 fps=0.6 q=33.2 size=       0KiB time=00:00:00.96 bitrate=   0.4kbits/s speed=0.00997x elapsed=0:01:36.93    \nframe=   60 fps=0.6 q=33.2 size=       0KiB time=00:00:00.96 bitrate=   0.4kbits/s speed=0.00992x elapsed=0:01:37.47    \nframe=   60 fps=0.6 q=33.2 size=       0KiB time=00:00:00.96 bitrate=   0.4kbits/s speed=0.00986x elapsed=0:01:38.01    \nframe=   60 fps=0.6 q=33.2 size=       0KiB time=00:00:00.96 bitrate=   0.4kbits/s speed=0.00981x elapsed=0:01:38.54    \nframe=   61 fps=0.6 q=33.2 size=       0KiB time=00:00:00.98 bitrate=   0.4kbits/s speed=0.00993x elapsed=0:01:39.07    \nframe=   61 fps=0.6 q=33.2 size=       0KiB time=00:00:00.98 bitrate=   0.4kbits/s speed=0.00987x elapsed=0:01:39.61    \nframe=   61 fps=0.6 q=33.2 size=       0KiB time=00:00:00.98 bitrate=   0.4kbits/s speed=0.00982x elapsed=0:01:40.16    \nframe=   62 fps=0.6 q=25.5 size=       0KiB time=00:00:01.00 bitrate=   0.4kbits/s speed=0.00993x elapsed=0:01:40.71    \nframe=   62 fps=0.6 q=25.5 size=       0KiB time=00:00:01.00 bitrate=   0.4kbits/s speed=0.00988x elapsed=0:01:41.25    \nframe=   62 fps=0.6 q=25.5 size=       0KiB time=00:00:01.00 bitrate=   0.4kbits/s speed=0.00982x elapsed=0:01:41.78    \nframe=   62 fps=0.6 q=25.5 size=       0KiB time=00:00:01.00 bitrate=   0.4kbits/s speed=0.00977x elapsed=0:01:42.34    \nframe=   63 fps=0.6 q=31.5 size=       0KiB time=00:00:01.01 bitrate=   0.3kbits/s speed=0.00988x elapsed=0:01:42.88    \nframe=   63 fps=0.6 q=31.5 size=       0KiB time=00:00:01.01 bitrate=   0.3kbits/s speed=0.00983x elapsed=0:01:43.43    \nframe=   63 fps=0.6 q=31.5 size=       0KiB time=00:00:01.01 bitrate=   0.3kbits/s speed=0.00978x elapsed=0:01:43.96    \nframe=   64 fps=0.6 q=33.0 size=       0KiB time=00:00:01.03 bitrate=   0.3kbits/s speed=0.00989x elapsed=0:01:44.52    \nframe=   64 fps=0.6 q=33.0 size=       0KiB time=00:00:01.03 bitrate=   0.3kbits/s speed=0.00983x elapsed=0:01:45.10    \nframe=   64 fps=0.6 q=33.0 size=       0KiB time=00:00:01.03 bitrate=   0.3kbits/s speed=0.00978x elapsed=0:01:45.61    \nframe=   64 fps=0.6 q=33.0 size=       0KiB time=00:00:01.03 bitrate=   0.3kbits/s speed=0.00974x elapsed=0:01:46.14    \nframe=   64 fps=0.6 q=33.0 size=       0KiB time=00:00:01.03 bitrate=   0.3kbits/s speed=0.00969x elapsed=0:01:46.68    \nframe=   65 fps=0.6 q=32.3 size=       0KiB time=00:00:01.05 bitrate=   0.3kbits/s speed=0.00979x elapsed=0:01:47.21    \nframe=   65 fps=0.6 q=32.3 size=       0KiB time=00:00:01.05 bitrate=   0.3kbits/s speed=0.00974x elapsed=0:01:47.76    \nframe=   65 fps=0.6 q=32.3 size=       0KiB time=00:00:01.05 bitrate=   0.3kbits/s speed=0.00969x elapsed=0:01:48.31    \nframe=   66 fps=0.6 q=33.1 size=       0KiB time=00:00:01.06 bitrate=   0.3kbits/s speed=0.0098x elapsed=0:01:48.85    \nframe=   66 fps=0.6 q=33.1 size=       0KiB time=00:00:01.06 bitrate=   0.3kbits/s speed=0.00975x elapsed=0:01:49.40    \nframe=   66 fps=0.6 q=33.1 size=       0KiB time=00:00:01.06 bitrate=   0.3kbits/s speed=0.0097x elapsed=0:01:49.94    \nframe=   67 fps=0.6 q=26.8 size=       0KiB time=00:00:01.08 bitrate=   0.3kbits/s speed=0.00981x elapsed=0:01:50.47    \nframe=   67 fps=0.6 q=26.8 size=       0KiB time=00:00:01.08 bitrate=   0.3kbits/s speed=0.00976x elapsed=0:01:51.02    \nframe=   68 fps=0.6 q=31.7 size=       0KiB time=00:00:01.10 bitrate=   0.3kbits/s speed=0.00986x elapsed=0:01:51.54    \nframe=   68 fps=0.6 q=31.7 size=       0KiB time=00:00:01.10 bitrate=   0.3kbits/s speed=0.00981x elapsed=0:01:52.07    \nframe=   69 fps=0.6 q=33.2 size=     256KiB time=00:00:01.11 bitrate=1878.4kbits/s speed=0.00991x elapsed=0:01:52.64    \nframe=   69 fps=0.6 q=33.2 size=     256KiB time=00:00:01.11 bitrate=1878.4kbits/s speed=0.00987x elapsed=0:01:53.16    \nframe=   69 fps=0.6 q=33.2 size=     256KiB time=00:00:01.11 bitrate=1878.4kbits/s speed=0.00982x elapsed=0:01:53.68    \nframe=   69 fps=0.6 q=33.2 size=     256KiB time=00:00:01.11 bitrate=1878.4kbits/s speed=0.00978x elapsed=0:01:54.21    \nframe=   69 fps=0.6 q=33.2 size=     256KiB time=00:00:01.11 bitrate=1878.4kbits/s speed=0.00973x elapsed=0:01:54.75    \nframe=   70 fps=0.6 q=33.0 size=     256KiB time=00:00:01.13 bitrate=1850.7kbits/s speed=0.00983x elapsed=0:01:55.27    \nframe=   70 fps=0.6 q=33.0 size=     256KiB time=00:00:01.13 bitrate=1850.7kbits/s speed=0.00979x elapsed=0:01:55.82    \nframe=   70 fps=0.6 q=33.0 size=     256KiB time=00:00:01.13 bitrate=1850.7kbits/s speed=0.00974x elapsed=0:01:56.35    \nframe=   71 fps=0.6 q=33.3 size=     256KiB time=00:00:01.15 bitrate=1823.9kbits/s speed=0.00984x elapsed=0:01:56.86    \nframe=   71 fps=0.6 q=33.3 size=     256KiB time=00:00:01.15 bitrate=1823.9kbits/s speed=0.00979x elapsed=0:01:57.40    \nframe=   71 fps=0.6 q=33.3 size=     256KiB time=00:00:01.15 bitrate=1823.9kbits/s speed=0.00975x elapsed=0:01:57.94    \nframe=   71 fps=0.6 q=33.3 size=     256KiB time=00:00:01.15 bitrate=1823.9kbits/s speed=0.00971x elapsed=0:01:58.47    \nframe=   71 fps=0.6 q=33.3 size=     256KiB time=00:00:01.15 bitrate=1823.9kbits/s speed=0.00966x elapsed=0:01:59.03    \nframe=   71 fps=0.6 q=33.3 size=     256KiB time=00:00:01.15 bitrate=1823.9kbits/s speed=0.00962x elapsed=0:01:59.57    \nframe=   72 fps=0.6 q=26.0 size=     256KiB time=00:00:01.16 bitrate=1797.9kbits/s speed=0.00971x elapsed=0:02:00.12    \nframe=   72 fps=0.6 q=26.0 size=     256KiB time=00:00:01.16 bitrate=1797.9kbits/s speed=0.00967x elapsed=0:02:00.67    \nframe=   72 fps=0.6 q=26.0 size=     256KiB time=00:00:01.16 bitrate=1797.9kbits/s speed=0.00962x elapsed=0:02:01.22    \nframe=   72 fps=0.6 q=26.0 size=     256KiB time=00:00:01.16 bitrate=1797.9kbits/s speed=0.00958x elapsed=0:02:01.77    \nframe=   73 fps=0.6 q=31.1 size=     256KiB time=00:00:01.18 bitrate=1772.5kbits/s speed=0.00967x elapsed=0:02:02.36    \nframe=   74 fps=0.6 q=34.1 size=     256KiB time=00:00:01.20 bitrate=1747.9kbits/s speed=0.00976x elapsed=0:02:02.98    \nframe=   74 fps=0.6 q=34.1 size=     256KiB time=00:00:01.20 bitrate=1747.9kbits/s speed=0.00971x elapsed=0:02:03.55    \nframe=   74 fps=0.6 q=34.1 size=     256KiB time=00:00:01.20 bitrate=1747.9kbits/s speed=0.00967x elapsed=0:02:04.07    \nframe=   74 fps=0.6 q=34.1 size=     256KiB time=00:00:01.20 bitrate=1747.9kbits/s speed=0.00963x elapsed=0:02:04.59    \nframe=   74 fps=0.6 q=34.1 size=     256KiB time=00:00:01.20 bitrate=1747.9kbits/s speed=0.00959x elapsed=0:02:05.11    \nframe=   74 fps=0.6 q=34.1 size=     256KiB time=00:00:01.20 bitrate=1747.9kbits/s speed=0.00955x elapsed=0:02:05.63    \nframe=   74 fps=0.6 q=34.1 size=     256KiB time=00:00:01.20 bitrate=1747.9kbits/s speed=0.00951x elapsed=0:02:06.15    \nframe=   75 fps=0.6 q=34.0 size=     256KiB time=00:00:01.21 bitrate=1724.0kbits/s speed=0.0096x elapsed=0:02:06.70    \nframe=   75 fps=0.6 q=34.0 size=     256KiB time=00:00:01.21 bitrate=1724.0kbits/s speed=0.00956x elapsed=0:02:07.26    \nframe=   75 fps=0.6 q=34.0 size=     256KiB time=00:00:01.21 bitrate=1724.0kbits/s speed=0.00952x elapsed=0:02:07.80    \nframe=   75 fps=0.6 q=34.0 size=     256KiB time=00:00:01.21 bitrate=1724.0kbits/s speed=0.00948x elapsed=0:02:08.34    \nframe=   75 fps=0.6 q=34.0 size=     256KiB time=00:00:01.21 bitrate=1724.0kbits/s speed=0.00944x elapsed=0:02:08.87    \nframe=   75 fps=0.6 q=34.0 size=     256KiB time=00:00:01.21 bitrate=1724.0kbits/s speed=0.0094x elapsed=0:02:09.43    \nframe=   76 fps=0.6 q=33.3 size=     256KiB time=00:00:01.23 bitrate=1700.7kbits/s speed=0.00949x elapsed=0:02:09.99    \nframe=   76 fps=0.6 q=33.3 size=     256KiB time=00:00:01.23 bitrate=1700.7kbits/s speed=0.00945x elapsed=0:02:10.54    \nframe=   76 fps=0.6 q=33.3 size=     256KiB time=00:00:01.23 bitrate=1700.7kbits/s speed=0.00941x elapsed=0:02:11.07    \nframe=   77 fps=0.6 q=28.8 size=     256KiB time=00:00:01.25 bitrate=1678.0kbits/s speed=0.0095x elapsed=0:02:11.62    \nframe=   77 fps=0.6 q=28.8 size=     256KiB time=00:00:01.25 bitrate=1678.0kbits/s speed=0.00946x elapsed=0:02:12.15    \nframe=   77 fps=0.6 q=28.8 size=     256KiB time=00:00:01.25 bitrate=1678.0kbits/s speed=0.00942x elapsed=0:02:12.71    \nframe=   77 fps=0.6 q=28.8 size=     256KiB time=00:00:01.25 bitrate=1678.0kbits/s speed=0.00938x elapsed=0:02:13.25    \nframe=   77 fps=0.6 q=28.8 size=     256KiB time=00:00:01.25 bitrate=1678.0kbits/s speed=0.00934x elapsed=0:02:13.78    \nframe=   78 fps=0.6 q=31.9 size=     256KiB time=00:00:01.26 bitrate=1655.9kbits/s speed=0.00943x elapsed=0:02:14.33    \nframe=   78 fps=0.6 q=31.9 size=     256KiB time=00:00:01.26 bitrate=1655.9kbits/s speed=0.00939x elapsed=0:02:14.86    \nframe=   79 fps=0.6 q=33.3 size=     256KiB time=00:00:01.28 bitrate=1634.4kbits/s speed=0.00948x elapsed=0:02:15.41    \nframe=   79 fps=0.6 q=33.3 size=     256KiB time=00:00:01.28 bitrate=1634.4kbits/s speed=0.00944x elapsed=0:02:15.99    \nframe=   79 fps=0.6 q=33.3 size=     256KiB time=00:00:01.28 bitrate=1634.4kbits/s speed=0.0094x elapsed=0:02:16.55    \nframe=   79 fps=0.6 q=33.3 size=     256KiB time=00:00:01.28 bitrate=1634.4kbits/s speed=0.00936x elapsed=0:02:17.10    \nframe=   79 fps=0.6 q=33.3 size=     256KiB time=00:00:01.28 bitrate=1634.4kbits/s speed=0.00932x elapsed=0:02:17.63    \nframe=   79 fps=0.6 q=33.3 size=     256KiB time=00:00:01.28 bitrate=1634.4kbits/s speed=0.00929x elapsed=0:02:18.18    \nframe=   79 fps=0.6 q=33.3 size=     256KiB time=00:00:01.28 bitrate=1634.4kbits/s speed=0.00925x elapsed=0:02:18.75    \nframe=   79 fps=0.6 q=33.3 size=     256KiB time=00:00:01.28 bitrate=1634.4kbits/s speed=0.00921x elapsed=0:02:19.38    \nframe=   79 fps=0.6 q=33.3 size=     256KiB time=00:00:01.28 bitrate=1634.4kbits/s speed=0.00917x elapsed=0:02:19.96    \nframe=   80 fps=0.6 q=33.2 size=     256KiB time=00:00:01.30 bitrate=1613.5kbits/s speed=0.00925x elapsed=0:02:20.51    \nframe=   80 fps=0.6 q=33.2 size=     256KiB time=00:00:01.30 bitrate=1613.5kbits/s speed=0.00922x elapsed=0:02:21.05    \nframe=   80 fps=0.6 q=33.2 size=     256KiB time=00:00:01.30 bitrate=1613.5kbits/s speed=0.00918x elapsed=0:02:21.62    \nframe=   80 fps=0.6 q=33.2 size=     256KiB time=00:00:01.30 bitrate=1613.5kbits/s speed=0.00914x elapsed=0:02:22.17    \nframe=   80 fps=0.6 q=33.2 size=     256KiB time=00:00:01.30 bitrate=1613.5kbits/s speed=0.00911x elapsed=0:02:22.76    \nframe=   80 fps=0.6 q=33.2 size=     256KiB time=00:00:01.30 bitrate=1613.5kbits/s speed=0.00907x elapsed=0:02:23.36    \nframe=   81 fps=0.6 q=33.2 size=     256KiB time=00:00:01.30 bitrate=1613.5kbits/s speed=0.00903x elapsed=0:02:23.92    \nframe=   81 fps=0.6 q=33.2 size=     256KiB time=00:00:01.31 bitrate=1593.0kbits/s speed=0.00911x elapsed=0:02:24.47    \nframe=   81 fps=0.6 q=33.2 size=     256KiB time=00:00:01.31 bitrate=1593.0kbits/s speed=0.00908x elapsed=0:02:25.03    \nframe=   82 fps=0.6 q=26.7 size=     256KiB time=00:00:01.33 bitrate=1573.1kbits/s speed=0.00916x elapsed=0:02:25.57    \nframe=   83 fps=0.6 q=32.1 size=     256KiB time=00:00:01.35 bitrate=1553.7kbits/s speed=0.00924x elapsed=0:02:26.09    \nframe=   83 fps=0.6 q=32.1 size=     256KiB time=00:00:01.35 bitrate=1553.7kbits/s speed=0.00921x elapsed=0:02:26.62    \nframe=   84 fps=0.6 q=33.1 size=     256KiB time=00:00:01.36 bitrate=1534.8kbits/s speed=0.00929x elapsed=0:02:27.14    \nframe=   84 fps=0.6 q=33.1 size=     256KiB time=00:00:01.36 bitrate=1534.8kbits/s speed=0.00926x elapsed=0:02:27.66    \nframe=   84 fps=0.6 q=33.1 size=     256KiB time=00:00:01.36 bitrate=1534.8kbits/s speed=0.00922x elapsed=0:02:28.17    \nframe=   85 fps=0.6 q=33.2 size=     256KiB time=00:00:01.38 bitrate=1516.3kbits/s speed=0.0093x elapsed=0:02:28.69    \nframe=   85 fps=0.6 q=33.2 size=     256KiB time=00:00:01.38 bitrate=1516.3kbits/s speed=0.00927x elapsed=0:02:29.21    \nframe=   86 fps=0.6 q=33.2 size=     256KiB time=00:00:01.40 bitrate=1498.2kbits/s speed=0.00935x elapsed=0:02:29.71    \nframe=   87 fps=0.6 q=26.0 size=     256KiB time=00:00:01.41 bitrate=1480.6kbits/s speed=0.00943x elapsed=0:02:30.23    \nframe=   87 fps=0.6 q=26.0 size=     256KiB time=00:00:01.41 bitrate=1480.6kbits/s speed=0.0094x elapsed=0:02:30.77    \nframe=   88 fps=0.6 q=31.8 size=     256KiB time=00:00:01.43 bitrate=1463.4kbits/s speed=0.00947x elapsed=0:02:31.32    \nframe=   88 fps=0.6 q=31.8 size=     256KiB time=00:00:01.43 bitrate=1463.4kbits/s speed=0.00944x elapsed=0:02:31.85    \nframe=   89 fps=0.6 q=33.3 size=     256KiB time=00:00:01.45 bitrate=1446.6kbits/s speed=0.00952x elapsed=0:02:32.37    \nframe=   90 fps=0.6 q=26.0 size=     256KiB time=00:00:01.46 bitrate=1430.1kbits/s speed=0.00959x elapsed=0:02:32.89    \nframe=   90 fps=0.6 q=26.0 size=     256KiB time=00:00:01.46 bitrate=1430.1kbits/s speed=0.00956x elapsed=0:02:33.43    \nframe=   91 fps=0.6 q=31.9 size=     256KiB time=00:00:01.48 bitrate=1414.0kbits/s speed=0.00964x elapsed=0:02:33.94    \nframe=   91 fps=0.6 q=31.9 size=     256KiB time=00:00:01.48 bitrate=1414.0kbits/s speed=0.0096x elapsed=0:02:34.45    \nframe=   92 fps=0.6 q=32.2 size=     256KiB time=00:00:01.50 bitrate=1398.3kbits/s speed=0.00968x elapsed=0:02:34.97    \nframe=   92 fps=0.6 q=32.2 size=     256KiB time=00:00:01.50 bitrate=1398.3kbits/s speed=0.00965x elapsed=0:02:35.48    \nframe=   92 fps=0.6 q=32.2 size=     256KiB time=00:00:01.50 bitrate=1398.3kbits/s speed=0.00961x elapsed=0:02:36.00    \nframe=   93 fps=0.6 q=32.2 size=     256KiB time=00:00:01.51 bitrate=1383.0kbits/s speed=0.00969x elapsed=0:02:36.52    \nframe=   94 fps=0.6 q=33.0 size=     256KiB time=00:00:01.53 bitrate=1367.9kbits/s speed=0.00976x elapsed=0:02:37.05    \nframe=   94 fps=0.6 q=33.0 size=     256KiB time=00:00:01.53 bitrate=1367.9kbits/s speed=0.00973x elapsed=0:02:37.57    \nframe=   95 fps=0.6 q=26.3 size=     256KiB time=00:00:01.55 bitrate=1353.2kbits/s speed=0.0098x elapsed=0:02:38.09    \nframe=   95 fps=0.6 q=26.3 size=     256KiB time=00:00:01.55 bitrate=1353.2kbits/s speed=0.00977x elapsed=0:02:38.61    \nframe=   96 fps=0.6 q=32.0 size=     256KiB time=00:00:01.56 bitrate=1338.8kbits/s speed=0.00984x elapsed=0:02:39.13    \nframe=   97 fps=0.6 q=33.0 size=     256KiB time=00:00:01.58 bitrate=1324.7kbits/s speed=0.00992x elapsed=0:02:39.64    \nframe=   97 fps=0.6 q=33.0 size=     256KiB time=00:00:01.58 bitrate=1324.7kbits/s speed=0.00989x elapsed=0:02:40.17    \nframe=   97 fps=0.6 q=33.0 size=     256KiB time=00:00:01.58 bitrate=1324.7kbits/s speed=0.00985x elapsed=0:02:40.69    \nframe=   97 fps=0.6 q=33.0 size=     256KiB time=00:00:01.58 bitrate=1324.7kbits/s speed=0.00982x elapsed=0:02:41.20    \nframe=   98 fps=0.6 q=33.1 size=     256KiB time=00:00:01.60 bitrate=1310.9kbits/s speed=0.00989x elapsed=0:02:41.72    \nframe=   98 fps=0.6 q=33.1 size=     256KiB time=00:00:01.60 bitrate=1310.9kbits/s speed=0.00986x elapsed=0:02:42.23    \nframe=   98 fps=0.6 q=33.1 size=     256KiB time=00:00:01.60 bitrate=1310.9kbits/s speed=0.00983x elapsed=0:02:42.76    \nframe=   98 fps=0.6 q=33.1 size=     256KiB time=00:00:01.60 bitrate=1310.9kbits/s speed=0.0098x elapsed=0:02:43.28    \nframe=   99 fps=0.6 q=33.0 size=     256KiB time=00:00:01.61 bitrate=1297.4kbits/s speed=0.00987x elapsed=0:02:43.80    \nframe=  100 fps=0.6 q=28.7 size=     256KiB time=00:00:01.63 bitrate=1284.2kbits/s speed=0.00994x elapsed=0:02:44.31    \nframe=  100 fps=0.6 q=28.7 size=     256KiB time=00:00:01.63 bitrate=1284.2kbits/s speed=0.00991x elapsed=0:02:44.85    \nframe=  101 fps=0.6 q=31.6 size=     256KiB time=00:00:01.65 bitrate=1271.2kbits/s speed=0.00998x elapsed=0:02:45.37    \nframe=  101 fps=0.6 q=31.6 size=     256KiB time=00:00:01.65 bitrate=1271.2kbits/s speed=0.00995x elapsed=0:02:45.87    \nframe=  101 fps=0.6 q=31.6 size=     256KiB time=00:00:01.65 bitrate=1271.2kbits/s speed=0.00992x elapsed=0:02:46.39    \nframe=  101 fps=0.6 q=31.6 size=     256KiB time=00:00:01.65 bitrate=1271.2kbits/s speed=0.00989x elapsed=0:02:46.91    \nframe=  101 fps=0.6 q=31.6 size=     256KiB time=00:00:01.65 bitrate=1271.2kbits/s speed=0.00985x elapsed=0:02:47.42    \nframe=  102 fps=0.6 q=33.3 size=     256KiB time=00:00:01.66 bitrate=1258.5kbits/s speed=0.00992x elapsed=0:02:47.96    \nframe=  102 fps=0.6 q=33.3 size=     256KiB time=00:00:01.66 bitrate=1258.5kbits/s speed=0.00989x elapsed=0:02:48.51    \nframe=  103 fps=0.6 q=34.1 size=     256KiB time=00:00:01.68 bitrate=1246.0kbits/s speed=0.00996x elapsed=0:02:49.05    \nframe=  103 fps=0.6 q=34.1 size=     256KiB time=00:00:01.68 bitrate=1246.0kbits/s speed=0.00993x elapsed=0:02:49.56    \nframe=  104 fps=0.6 q=28.6 size=     256KiB time=00:00:01.70 bitrate=1233.8kbits/s speed=0.00999x elapsed=0:02:50.09    \nframe=  105 fps=0.6 q=31.5 size=     256KiB time=00:00:01.71 bitrate=1221.8kbits/s speed=0.0101x elapsed=0:02:50.61    \nframe=  105 fps=0.6 q=31.5 size=     256KiB time=00:00:01.71 bitrate=1221.8kbits/s speed=0.01x elapsed=0:02:51.12    \nframe=  106 fps=0.6 q=33.3 size=     256KiB time=00:00:01.73 bitrate=1210.1kbits/s speed=0.0101x elapsed=0:02:51.65    \nframe=  106 fps=0.6 q=33.3 size=     256KiB time=00:00:01.73 bitrate=1210.1kbits/s speed=0.0101x elapsed=0:02:52.18    \nframe=  106 fps=0.6 q=33.3 size=     256KiB time=00:00:01.73 bitrate=1210.1kbits/s speed=0.01x elapsed=0:02:52.71    \nframe=  106 fps=0.6 q=33.3 size=     256KiB time=00:00:01.73 bitrate=1210.1kbits/s speed=0.01x elapsed=0:02:53.24    \nframe=  106 fps=0.6 q=33.3 size=     256KiB time=00:00:01.73 bitrate=1210.1kbits/s speed=0.00998x elapsed=0:02:53.76    \nframe=  106 fps=0.6 q=33.3 size=     256KiB time=00:00:01.73 bitrate=1210.1kbits/s speed=0.00994x elapsed=0:02:54.29    \nframe=  107 fps=0.6 q=33.2 size=     256KiB time=00:00:01.75 bitrate=1198.6kbits/s speed=0.01x elapsed=0:02:54.84    \nframe=  107 fps=0.6 q=33.2 size=     256KiB time=00:00:01.75 bitrate=1198.6kbits/s speed=0.00998x elapsed=0:02:55.35    \nframe=  107 fps=0.6 q=33.2 size=     256KiB time=00:00:01.75 bitrate=1198.6kbits/s speed=0.00995x elapsed=0:02:55.86    \nframe=  108 fps=0.6 q=33.3 size=     256KiB time=00:00:01.76 bitrate=1187.3kbits/s speed=0.01x elapsed=0:02:56.38    \nframe=  108 fps=0.6 q=33.3 size=     256KiB time=00:00:01.76 bitrate=1187.3kbits/s speed=0.00999x elapsed=0:02:56.89    \nframe=  108 fps=0.6 q=33.3 size=     256KiB time=00:00:01.76 bitrate=1187.3kbits/s speed=0.00996x elapsed=0:02:57.43    \nframe=  108 fps=0.6 q=33.3 size=     256KiB time=00:00:01.76 bitrate=1187.3kbits/s speed=0.00993x elapsed=0:02:57.96    \nframe=  109 fps=0.6 q=26.5 size=     256KiB time=00:00:01.78 bitrate=1176.2kbits/s speed=0.00999x elapsed=0:02:58.49    \nframe=  109 fps=0.6 q=26.5 size=     256KiB time=00:00:01.78 bitrate=1176.2kbits/s speed=0.00996x elapsed=0:02:59.04    \nframe=  109 fps=0.6 q=26.5 size=     256KiB time=00:00:01.78 bitrate=1176.2kbits/s speed=0.00993x elapsed=0:02:59.57    \nframe=  110 fps=0.6 q=31.6 size=     256KiB time=00:00:01.80 bitrate=1165.3kbits/s speed=0.00999x elapsed=0:03:00.09    \nframe=  110 fps=0.6 q=31.6 size=     256KiB time=00:00:01.80 bitrate=1165.3kbits/s speed=0.00996x elapsed=0:03:00.63    \nframe=  110 fps=0.6 q=31.6 size=     256KiB time=00:00:01.80 bitrate=1165.3kbits/s speed=0.00994x elapsed=0:03:01.17    \nframe=  110 fps=0.6 q=31.6 size=     256KiB time=00:00:01.80 bitrate=1165.3kbits/s speed=0.0099x elapsed=0:03:01.74    \nframe=  110 fps=0.6 q=31.6 size=     256KiB time=00:00:01.80 bitrate=1165.3kbits/s speed=0.00987x elapsed=0:03:02.31    \nframe=  111 fps=0.6 q=33.1 size=     256KiB time=00:00:01.81 bitrate=1154.6kbits/s speed=0.00994x elapsed=0:03:02.84    \nframe=  111 fps=0.6 q=33.1 size=     256KiB time=00:00:01.81 bitrate=1154.6kbits/s speed=0.00991x elapsed=0:03:03.39    \nframe=  111 fps=0.6 q=33.1 size=     256KiB time=00:00:01.81 bitrate=1154.6kbits/s speed=0.00988x elapsed=0:03:03.93    \nframe=  111 fps=0.6 q=33.1 size=     256KiB time=00:00:01.81 bitrate=1154.6kbits/s speed=0.00985x elapsed=0:03:04.46    \nframe=  111 fps=0.6 q=33.1 size=     256KiB time=00:00:01.81 bitrate=1154.6kbits/s speed=0.00982x elapsed=0:03:05.00    \nframe=  111 fps=0.6 q=33.1 size=     256KiB time=00:00:01.81 bitrate=1154.6kbits/s speed=0.00979x elapsed=0:03:05.51    \nframe=  112 fps=0.6 q=33.2 size=     256KiB time=00:00:01.83 bitrate=1144.1kbits/s speed=0.00985x elapsed=0:03:06.06    \nframe=  112 fps=0.6 q=33.2 size=     256KiB time=00:00:01.83 bitrate=1144.1kbits/s speed=0.00983x elapsed=0:03:06.58    \nframe=  113 fps=0.6 q=33.4 size=     256KiB time=00:00:01.85 bitrate=1133.8kbits/s speed=0.00989x elapsed=0:03:07.12    \nframe=  113 fps=0.6 q=33.4 size=     256KiB time=00:00:01.85 bitrate=1133.8kbits/s speed=0.00986x elapsed=0:03:07.70    \nframe=  113 fps=0.6 q=33.4 size=     256KiB time=00:00:01.85 bitrate=1133.8kbits/s speed=0.00983x elapsed=0:03:08.27    \nframe=  113 fps=0.6 q=33.4 size=     256KiB time=00:00:01.85 bitrate=1133.8kbits/s speed=0.0098x elapsed=0:03:08.80    \nframe=  114 fps=0.6 q=29.5 size=     256KiB time=00:00:01.86 bitrate=1123.7kbits/s speed=0.00986x elapsed=0:03:09.33    \nframe=  114 fps=0.6 q=29.5 size=     256KiB time=00:00:01.86 bitrate=1123.7kbits/s speed=0.00983x elapsed=0:03:09.88    \nframe=  114 fps=0.6 q=29.5 size=     256KiB time=00:00:01.86 bitrate=1123.7kbits/s speed=0.0098x elapsed=0:03:10.46    \nframe=  114 fps=0.6 q=29.5 size=     256KiB time=00:00:01.86 bitrate=1123.7kbits/s speed=0.00977x elapsed=0:03:11.03    \nframe=  114 fps=0.6 q=29.5 size=     256KiB time=00:00:01.86 bitrate=1123.7kbits/s speed=0.00974x elapsed=0:03:11.57    \nframe=  115 fps=0.6 q=32.7 size=     256KiB time=00:00:01.88 bitrate=1113.7kbits/s speed=0.0098x elapsed=0:03:12.11    \nframe=  115 fps=0.6 q=32.7 size=     256KiB time=00:00:01.88 bitrate=1113.7kbits/s speed=0.00978x elapsed=0:03:12.63    \nframe=  115 fps=0.6 q=32.7 size=     256KiB time=00:00:01.88 bitrate=1113.7kbits/s speed=0.00975x elapsed=0:03:13.22    \nframe=  115 fps=0.6 q=32.7 size=     256KiB time=00:00:01.88 bitrate=1113.7kbits/s speed=0.00972x elapsed=0:03:13.77    \nframe=  115 fps=0.6 q=32.7 size=     256KiB time=00:00:01.88 bitrate=1113.7kbits/s speed=0.00969x elapsed=0:03:14.33    \nframe=  115 fps=0.6 q=32.7 size=     256KiB time=00:00:01.88 bitrate=1113.7kbits/s speed=0.00967x elapsed=0:03:14.85    \nframe=  115 fps=0.6 q=32.7 size=     256KiB time=00:00:01.88 bitrate=1113.7kbits/s speed=0.00964x elapsed=0:03:15.43    \nframe=  115 fps=0.6 q=32.7 size=     256KiB time=00:00:01.88 bitrate=1113.7kbits/s speed=0.00961x elapsed=0:03:15.99    \nframe=  115 fps=0.6 q=32.7 size=     256KiB time=00:00:01.88 bitrate=1113.7kbits/s speed=0.00958x elapsed=0:03:16.60    \nframe=  116 fps=0.6 q=33.4 size=     256KiB time=00:00:01.90 bitrate=1103.9kbits/s speed=0.00964x elapsed=0:03:17.13    \nframe=  116 fps=0.6 q=33.4 size=     256KiB time=00:00:01.90 bitrate=1103.9kbits/s speed=0.00961x elapsed=0:03:17.65    \nframe=  116 fps=0.6 q=33.4 size=     256KiB time=00:00:01.90 bitrate=1103.9kbits/s speed=0.00958x elapsed=0:03:18.22    \nframe=  116 fps=0.6 q=33.4 size=     256KiB time=00:00:01.90 bitrate=1103.9kbits/s speed=0.00956x elapsed=0:03:18.76    \nframe=  116 fps=0.6 q=33.4 size=     256KiB time=00:00:01.90 bitrate=1103.9kbits/s speed=0.00953x elapsed=0:03:19.32    \nframe=  116 fps=0.6 q=33.4 size=     256KiB time=00:00:01.90 bitrate=1103.9kbits/s speed=0.00951x elapsed=0:03:19.87    \nframe=  116 fps=0.6 q=33.4 size=     256KiB time=00:00:01.90 bitrate=1103.9kbits/s speed=0.00948x elapsed=0:03:20.44    \nframe=  116 fps=0.6 q=33.4 size=     256KiB time=00:00:01.90 bitrate=1103.9kbits/s speed=0.00945x elapsed=0:03:20.97    \nframe=  116 fps=0.6 q=33.4 size=     256KiB time=00:00:01.90 bitrate=1103.9kbits/s speed=0.00943x elapsed=0:03:21.49    \nframe=  116 fps=0.6 q=33.4 size=     256KiB time=00:00:01.90 bitrate=1103.9kbits/s speed=0.00941x elapsed=0:03:22.01    \nframe=  116 fps=0.6 q=33.4 size=     256KiB time=00:00:01.90 bitrate=1103.9kbits/s speed=0.00938x elapsed=0:03:22.53    \nframe=  116 fps=0.6 q=33.4 size=     256KiB time=00:00:01.90 bitrate=1103.9kbits/s speed=0.00935x elapsed=0:03:23.10    \nframe=  116 fps=0.6 q=33.4 size=     256KiB time=00:00:01.90 bitrate=1103.9kbits/s speed=0.00933x elapsed=0:03:23.70    \nframe=  117 fps=0.6 q=33.1 size=     256KiB time=00:00:01.90 bitrate=1103.9kbits/s speed=0.0093x elapsed=0:03:24.26    \nframe=  118 fps=0.6 q=26.9 size=     256KiB time=00:00:01.93 bitrate=1084.9kbits/s speed=0.00944x elapsed=0:03:24.82    \nframe=  118 fps=0.6 q=26.9 size=     256KiB time=00:00:01.93 bitrate=1084.9kbits/s speed=0.00941x elapsed=0:03:25.36    \nframe=  118 fps=0.6 q=26.9 size=     256KiB time=00:00:01.93 bitrate=1084.9kbits/s speed=0.00939x elapsed=0:03:25.93    \nframe=  118 fps=0.6 q=26.9 size=     256KiB time=00:00:01.93 bitrate=1084.9kbits/s speed=0.00936x elapsed=0:03:26.48    \nframe=  120 fps=0.6 q=33.0 size=     256KiB time=00:00:01.96 bitrate=1066.5kbits/s speed=0.0095x elapsed=0:03:27.02    \nframe=  120 fps=0.6 q=33.0 size=     256KiB time=00:00:01.96 bitrate=1066.5kbits/s speed=0.00948x elapsed=0:03:27.53    \nframe=  121 fps=0.6 q=33.1 size=     256KiB time=00:00:01.98 bitrate=1057.6kbits/s speed=0.00953x elapsed=0:03:28.05    \nframe=  121 fps=0.6 q=33.1 size=     256KiB time=00:00:01.98 bitrate=1057.6kbits/s speed=0.00951x elapsed=0:03:28.57    \nframe=  122 fps=0.6 q=33.2 size=     256KiB time=00:00:02.00 bitrate=1048.8kbits/s speed=0.00956x elapsed=0:03:29.10    \nframe=  122 fps=0.6 q=33.2 size=     256KiB time=00:00:02.00 bitrate=1048.8kbits/s speed=0.00954x elapsed=0:03:29.61    \nframe=  123 fps=0.6 q=25.6 size=     256KiB time=00:00:02.01 bitrate=1040.1kbits/s speed=0.0096x elapsed=0:03:30.12    \nframe=  123 fps=0.6 q=25.6 size=     256KiB time=00:00:02.01 bitrate=1040.1kbits/s speed=0.00957x elapsed=0:03:30.65    \nframe=  124 fps=0.6 q=31.8 size=     256KiB time=00:00:02.03 bitrate=1031.6kbits/s speed=0.00963x elapsed=0:03:31.17    \nframe=  125 fps=0.6 q=32.3 size=     256KiB time=00:00:02.05 bitrate=1023.2kbits/s speed=0.00968x elapsed=0:03:31.70    \nframe=  125 fps=0.6 q=32.3 size=     256KiB time=00:00:02.05 bitrate=1023.2kbits/s speed=0.00966x elapsed=0:03:32.22    \nframe=  126 fps=0.6 q=26.5 size=     256KiB time=00:00:02.06 bitrate=1014.9kbits/s speed=0.00971x elapsed=0:03:32.74    \nframe=  126 fps=0.6 q=26.5 size=     256KiB time=00:00:02.06 bitrate=1014.9kbits/s speed=0.00969x elapsed=0:03:33.27    \nframe=  127 fps=0.6 q=30.2 size=     256KiB time=00:00:02.08 bitrate=1006.8kbits/s speed=0.00974x elapsed=0:03:33.80    \nframe=  128 fps=0.6 q=32.3 size=     256KiB time=00:00:02.10 bitrate= 998.8kbits/s speed=0.0098x elapsed=0:03:34.31    \nframe=  128 fps=0.6 q=32.3 size=     256KiB time=00:00:02.10 bitrate= 998.8kbits/s speed=0.00977x elapsed=0:03:34.84    \nframe=  129 fps=0.6 q=32.2 size=     256KiB time=00:00:02.11 bitrate= 990.9kbits/s speed=0.00983x elapsed=0:03:35.36    \nframe=  129 fps=0.6 q=32.2 size=     256KiB time=00:00:02.11 bitrate= 990.9kbits/s speed=0.0098x elapsed=0:03:35.87    \nframe=  131 fps=0.6 q=25.6 size=     512KiB time=00:00:02.15 bitrate=1951.0kbits/s speed=0.00994x elapsed=0:03:36.40    \nframe=  132 fps=0.6 q=30.6 size=     512KiB time=00:00:02.16 bitrate=1936.0kbits/s speed=0.00999x elapsed=0:03:36.91    \nframe=  132 fps=0.6 q=30.6 size=     512KiB time=00:00:02.16 bitrate=1936.0kbits/s speed=0.00996x elapsed=0:03:37.43    \nframe=  133 fps=0.6 q=32.3 size=     512KiB time=00:00:02.18 bitrate=1921.2kbits/s speed=0.01x elapsed=0:03:37.94    \nframe=  134 fps=0.6 q=32.2 size=     512KiB time=00:00:02.20 bitrate=1906.7kbits/s speed=0.0101x elapsed=0:03:38.45    \nframe=  134 fps=0.6 q=32.2 size=     512KiB time=00:00:02.20 bitrate=1906.7kbits/s speed=0.01x elapsed=0:03:38.97    \nframe=  134 fps=0.6 q=32.2 size=     512KiB time=00:00:02.20 bitrate=1906.7kbits/s speed=0.01x elapsed=0:03:39.51    \nframe=  135 fps=0.6 q=33.1 size=     512KiB time=00:00:02.21 bitrate=1892.3kbits/s speed=0.0101x elapsed=0:03:40.01    \nframe=  137 fps=0.6 q=31.7 size=     512KiB time=00:00:02.25 bitrate=1864.3kbits/s speed=0.0102x elapsed=0:03:40.53    \nframe=  137 fps=0.6 q=31.7 size=     512KiB time=00:00:02.25 bitrate=1864.3kbits/s speed=0.0102x elapsed=0:03:41.05    \nframe=  138 fps=0.6 q=33.1 size=     512KiB time=00:00:02.26 bitrate=1850.6kbits/s speed=0.0102x elapsed=0:03:41.57    \nframe=  139 fps=0.6 q=32.9 size=     512KiB time=00:00:02.28 bitrate=1837.1kbits/s speed=0.0103x elapsed=0:03:42.10    \nframe=  140 fps=0.6 q=32.3 size=     512KiB time=00:00:02.30 bitrate=1823.8kbits/s speed=0.0103x elapsed=0:03:42.62    \nframe=  140 fps=0.6 q=32.3 size=     512KiB time=00:00:02.30 bitrate=1823.8kbits/s speed=0.0103x elapsed=0:03:43.17    \nframe=  140 fps=0.6 q=32.3 size=     512KiB time=00:00:02.30 bitrate=1823.8kbits/s speed=0.0103x elapsed=0:03:43.69    \nframe=  142 fps=0.6 q=32.2 size=     512KiB time=00:00:02.33 bitrate=1797.7kbits/s speed=0.0104x elapsed=0:03:44.21    \nframe=  142 fps=0.6 q=32.2 size=     512KiB time=00:00:02.33 bitrate=1797.7kbits/s speed=0.0104x elapsed=0:03:44.72    \nframe=  143 fps=0.6 q=32.3 size=     512KiB time=00:00:02.35 bitrate=1785.0kbits/s speed=0.0104x elapsed=0:03:45.24    \nframe=  144 fps=0.6 q=33.2 size=     512KiB time=00:00:02.36 bitrate=1772.4kbits/s speed=0.0105x elapsed=0:03:45.74    \nframe=  144 fps=0.6 q=33.2 size=     512KiB time=00:00:02.36 bitrate=1772.4kbits/s speed=0.0105x elapsed=0:03:46.27    \nframe=  145 fps=0.6 q=33.3 size=     512KiB time=00:00:02.38 bitrate=1760.0kbits/s speed=0.0105x elapsed=0:03:46.79    \nframe=  147 fps=0.6 q=31.2 size=     512KiB time=00:00:02.41 bitrate=1735.7kbits/s speed=0.0106x elapsed=0:03:47.30    \nframe=  148 fps=0.6 q=32.3 size=     512KiB time=00:00:02.43 bitrate=1723.8kbits/s speed=0.0107x elapsed=0:03:47.81    \nframe=  148 fps=0.6 q=32.3 size=     512KiB time=00:00:02.43 bitrate=1723.8kbits/s speed=0.0107x elapsed=0:03:48.33    \nframe=  148 fps=0.6 q=32.3 size=     512KiB time=00:00:02.43 bitrate=1723.8kbits/s speed=0.0106x elapsed=0:03:48.85    \nframe=  149 fps=0.6 q=32.3 size=     512KiB time=00:00:02.45 bitrate=1712.1kbits/s speed=0.0107x elapsed=0:03:49.40    \nframe=  150 fps=0.7 q=32.4 size=     512KiB time=00:00:02.46 bitrate=1700.5kbits/s speed=0.0107x elapsed=0:03:49.95    \nframe=  151 fps=0.7 q=26.0 size=     512KiB time=00:00:02.48 bitrate=1689.1kbits/s speed=0.0108x elapsed=0:03:50.46    \nframe=  151 fps=0.7 q=26.0 size=     512KiB time=00:00:02.48 bitrate=1689.1kbits/s speed=0.0108x elapsed=0:03:50.99    \nframe=  152 fps=0.7 q=32.1 size=     512KiB time=00:00:02.50 bitrate=1677.9kbits/s speed=0.0108x elapsed=0:03:51.51    \nframe=  153 fps=0.7 q=32.4 size=     512KiB time=00:00:02.51 bitrate=1666.8kbits/s speed=0.0108x elapsed=0:03:52.03    \nframe=  154 fps=0.7 q=32.3 size=     512KiB time=00:00:02.53 bitrate=1655.8kbits/s speed=0.0109x elapsed=0:03:52.56    \nframe=  154 fps=0.7 q=32.3 size=     512KiB time=00:00:02.53 bitrate=1655.8kbits/s speed=0.0109x elapsed=0:03:53.10    \nframe=  154 fps=0.7 q=32.3 size=     512KiB time=00:00:02.53 bitrate=1655.8kbits/s speed=0.0108x elapsed=0:03:53.64    \nframe=  156 fps=0.7 q=24.3 size=     512KiB time=00:00:02.56 bitrate=1634.3kbits/s speed=0.011x elapsed=0:03:54.18    \nframe=  156 fps=0.7 q=24.3 size=     512KiB time=00:00:02.56 bitrate=1634.3kbits/s speed=0.0109x elapsed=0:03:54.70    \nframe=  156 fps=0.7 q=24.3 size=     512KiB time=00:00:02.56 bitrate=1634.3kbits/s speed=0.0109x elapsed=0:03:55.24    \nframe=  157 fps=0.7 q=31.3 size=     512KiB time=00:00:02.58 bitrate=1623.7kbits/s speed=0.011x elapsed=0:03:55.78    \nframe=  158 fps=0.7 q=31.4 size=     512KiB time=00:00:02.60 bitrate=1613.3kbits/s speed=0.011x elapsed=0:03:56.30    \nframe=  158 fps=0.7 q=31.4 size=     512KiB time=00:00:02.60 bitrate=1613.3kbits/s speed=0.011x elapsed=0:03:56.83    \nframe=  160 fps=0.7 q=31.3 size=     512KiB time=00:00:02.61 bitrate=1603.1kbits/s speed=0.011x elapsed=0:03:57.36    \nframe=  160 fps=0.7 q=31.3 size=     512KiB time=00:00:02.63 bitrate=1592.9kbits/s speed=0.0111x elapsed=0:03:57.88    \nframe=  160 fps=0.7 q=31.3 size=     512KiB time=00:00:02.63 bitrate=1592.9kbits/s speed=0.011x elapsed=0:03:58.41    \nframe=  160 fps=0.7 q=31.3 size=     512KiB time=00:00:02.63 bitrate=1592.9kbits/s speed=0.011x elapsed=0:03:58.93    \nframe=  161 fps=0.7 q=24.1 size=     512KiB time=00:00:02.65 bitrate=1582.9kbits/s speed=0.0111x elapsed=0:03:59.46    \nframe=  162 fps=0.7 q=30.5 size=     512KiB time=00:00:02.66 bitrate=1573.0kbits/s speed=0.0111x elapsed=0:03:59.99    \nframe=  163 fps=0.7 q=31.3 size=     512KiB time=00:00:02.68 bitrate=1563.2kbits/s speed=0.0112x elapsed=0:04:00.50    \nframe=  164 fps=0.7 q=31.3 size=     512KiB time=00:00:02.70 bitrate=1553.6kbits/s speed=0.0112x elapsed=0:04:01.03    \nframe=  165 fps=0.7 q=31.2 size=     512KiB time=00:00:02.71 bitrate=1544.0kbits/s speed=0.0112x elapsed=0:04:01.54    \nframe=  165 fps=0.7 q=31.2 size=     512KiB time=00:00:02.71 bitrate=1544.0kbits/s speed=0.0112x elapsed=0:04:02.07    \nframe=  165 fps=0.7 q=31.2 size=     512KiB time=00:00:02.71 bitrate=1544.0kbits/s speed=0.0112x elapsed=0:04:02.60    \nframe=  166 fps=0.7 q=24.4 size=     512KiB time=00:00:02.73 bitrate=1534.6kbits/s speed=0.0112x elapsed=0:04:03.11    \nframe=  167 fps=0.7 q=31.1 size=     512KiB time=00:00:02.75 bitrate=1525.3kbits/s speed=0.0113x elapsed=0:04:03.62    \nframe=  168 fps=0.7 q=31.4 size=     512KiB time=00:00:02.76 bitrate=1516.1kbits/s speed=0.0113x elapsed=0:04:04.15    \nframe=  168 fps=0.7 q=31.4 size=     512KiB time=00:00:02.76 bitrate=1516.1kbits/s speed=0.0113x elapsed=0:04:04.70    \nframe=  168 fps=0.7 q=31.4 size=     512KiB time=00:00:02.76 bitrate=1516.1kbits/s speed=0.0113x elapsed=0:04:05.24    \nframe=  169 fps=0.7 q=31.2 size=     512KiB time=00:00:02.78 bitrate=1507.1kbits/s speed=0.0113x elapsed=0:04:05.80    \nframe=  170 fps=0.7 q=31.4 size=     512KiB time=00:00:02.80 bitrate=1498.1kbits/s speed=0.0114x elapsed=0:04:06.34    \nframe=  171 fps=0.7 q=24.1 size=     512KiB time=00:00:02.80 bitrate=1498.1kbits/s speed=0.0113x elapsed=0:04:06.87    \nframe=  171 fps=0.7 q=24.1 size=     512KiB time=00:00:02.81 bitrate=1489.2kbits/s speed=0.0114x elapsed=0:04:07.41    \nframe=  173 fps=0.7 q=31.1 size=     512KiB time=00:00:02.85 bitrate=1471.8kbits/s speed=0.0115x elapsed=0:04:07.96    \nframe=  173 fps=0.7 q=31.1 size=     512KiB time=00:00:02.85 bitrate=1471.8kbits/s speed=0.0115x elapsed=0:04:08.50    \nframe=  174 fps=0.7 q=31.2 size=     512KiB time=00:00:02.86 bitrate=1463.3kbits/s speed=0.0115x elapsed=0:04:09.02    \nframe=  174 fps=0.7 q=31.2 size=     512KiB time=00:00:02.86 bitrate=1463.3kbits/s speed=0.0115x elapsed=0:04:09.55    \nframe=  175 fps=0.7 q=31.2 size=     512KiB time=00:00:02.88 bitrate=1454.8kbits/s speed=0.0115x elapsed=0:04:10.10    \nframe=  175 fps=0.7 q=31.2 size=     512KiB time=00:00:02.88 bitrate=1454.8kbits/s speed=0.0115x elapsed=0:04:10.63    \nframe=  176 fps=0.7 q=24.4 size=     512KiB time=00:00:02.90 bitrate=1446.4kbits/s speed=0.0115x elapsed=0:04:11.14    \nframe=  177 fps=0.7 q=30.4 size=     512KiB time=00:00:02.91 bitrate=1438.2kbits/s speed=0.0116x elapsed=0:04:11.65    \nframe=  177 fps=0.7 q=30.4 size=     512KiB time=00:00:02.91 bitrate=1438.2kbits/s speed=0.0116x elapsed=0:04:12.19    \nframe=  178 fps=0.7 q=31.3 size=     512KiB time=00:00:02.93 bitrate=1430.0kbits/s speed=0.0116x elapsed=0:04:12.72    \nframe=  178 fps=0.7 q=31.3 size=     512KiB time=00:00:02.93 bitrate=1430.0kbits/s speed=0.0116x elapsed=0:04:13.25    \nframe=  178 fps=0.7 q=31.3 size=     512KiB time=00:00:02.93 bitrate=1430.0kbits/s speed=0.0116x elapsed=0:04:13.78    \nframe=  179 fps=0.7 q=31.1 size=     512KiB time=00:00:02.95 bitrate=1421.9kbits/s speed=0.0116x elapsed=0:04:14.32    \nframe=  180 fps=0.7 q=31.3 size=     512KiB time=00:00:02.96 bitrate=1413.9kbits/s speed=0.0116x elapsed=0:04:14.88    \nframe=  180 fps=0.7 q=31.3 size=     512KiB time=00:00:02.96 bitrate=1413.9kbits/s speed=0.0116x elapsed=0:04:15.39    \nframe=  180 fps=0.7 q=31.3 size=     512KiB time=00:00:02.96 bitrate=1413.9kbits/s speed=0.0116x elapsed=0:04:15.94    \nframe=  180 fps=0.7 q=31.3 size=     512KiB time=00:00:02.96 bitrate=1413.9kbits/s speed=0.0116x elapsed=0:04:16.49    \nframe=  180 fps=0.7 q=31.3 size=     512KiB time=00:00:02.96 bitrate=1413.9kbits/s speed=0.0115x elapsed=0:04:17.02    \nframe=  180 fps=0.7 q=31.3 size=     512KiB time=00:00:02.96 bitrate=1413.9kbits/s speed=0.0115x elapsed=0:04:17.59    \nframe=  180 fps=0.7 q=31.3 size=     512KiB time=00:00:02.96 bitrate=1413.9kbits/s speed=0.0115x elapsed=0:04:18.21    \nframe=  181 fps=0.7 q=24.4 size=     512KiB time=00:00:02.98 bitrate=1406.0kbits/s speed=0.0115x elapsed=0:04:18.74    \nframe=  181 fps=0.7 q=24.4 size=     512KiB time=00:00:02.98 bitrate=1406.0kbits/s speed=0.0115x elapsed=0:04:19.31    \nframe=  181 fps=0.7 q=24.4 size=     512KiB time=00:00:02.98 bitrate=1406.0kbits/s speed=0.0115x elapsed=0:04:19.88    \nframe=  182 fps=0.7 q=30.0 size=     512KiB time=00:00:03.00 bitrate=1398.2kbits/s speed=0.0115x elapsed=0:04:20.43    \nframe=  183 fps=0.7 q=31.2 size=     512KiB time=00:00:03.01 bitrate=1390.5kbits/s speed=0.0116x elapsed=0:04:20.98    \nframe=  184 fps=0.7 q=31.0 size=     512KiB time=00:00:03.03 bitrate=1382.9kbits/s speed=0.0116x elapsed=0:04:21.55    \nframe=  184 fps=0.7 q=31.0 size=     512KiB time=00:00:03.03 bitrate=1382.9kbits/s speed=0.0116x elapsed=0:04:22.13    \nframe=  184 fps=0.7 q=31.0 size=     512KiB time=00:00:03.03 bitrate=1382.9kbits/s speed=0.0115x elapsed=0:04:22.68    \nframe=  184 fps=0.7 q=31.0 size=     512KiB time=00:00:03.03 bitrate=1382.9kbits/s speed=0.0115x elapsed=0:04:23.22    \nframe=  184 fps=0.7 q=31.0 size=     512KiB time=00:00:03.03 bitrate=1382.9kbits/s speed=0.0115x elapsed=0:04:23.79    \nframe=  184 fps=0.7 q=31.0 size=     512KiB time=00:00:03.03 bitrate=1382.9kbits/s speed=0.0115x elapsed=0:04:24.33    \nframe=  184 fps=0.7 q=31.0 size=     512KiB time=00:00:03.03 bitrate=1382.9kbits/s speed=0.0115x elapsed=0:04:24.85    \nframe=  185 fps=0.7 q=31.2 size=     512KiB time=00:00:03.05 bitrate=1375.3kbits/s speed=0.0115x elapsed=0:04:25.37    \nframe=  185 fps=0.7 q=31.2 size=     512KiB time=00:00:03.05 bitrate=1375.3kbits/s speed=0.0115x elapsed=0:04:25.95    \nframe=  185 fps=0.7 q=31.2 size=     512KiB time=00:00:03.05 bitrate=1375.3kbits/s speed=0.0114x elapsed=0:04:26.50    \nframe=  186 fps=0.7 q=24.4 size=     512KiB time=00:00:03.06 bitrate=1367.8kbits/s speed=0.0115x elapsed=0:04:27.06    \nframe=  186 fps=0.7 q=24.4 size=     512KiB time=00:00:03.06 bitrate=1367.8kbits/s speed=0.0115x elapsed=0:04:27.58    \nframe=  187 fps=0.7 q=30.1 size=     512KiB time=00:00:03.08 bitrate=1360.4kbits/s speed=0.0115x elapsed=0:04:28.11    \nframe=  187 fps=0.7 q=30.1 size=     512KiB time=00:00:03.08 bitrate=1360.4kbits/s speed=0.0115x elapsed=0:04:28.64    \nframe=  188 fps=0.7 q=31.9 size=     512KiB time=00:00:03.10 bitrate=1353.1kbits/s speed=0.0115x elapsed=0:04:29.15    \nframe=  189 fps=0.7 q=31.9 size=     512KiB time=00:00:03.11 bitrate=1345.9kbits/s speed=0.0116x elapsed=0:04:29.67    \nframe=  189 fps=0.7 q=31.9 size=     512KiB time=00:00:03.11 bitrate=1345.9kbits/s speed=0.0115x elapsed=0:04:30.19    \nframe=  189 fps=0.7 q=31.9 size=     512KiB time=00:00:03.11 bitrate=1345.9kbits/s speed=0.0115x elapsed=0:04:30.71    \nframe=  189 fps=0.7 q=31.9 size=     512KiB time=00:00:03.11 bitrate=1345.9kbits/s speed=0.0115x elapsed=0:04:31.25    \nframe=  190 fps=0.7 q=31.9 size=     512KiB time=00:00:03.13 bitrate=1338.7kbits/s speed=0.0115x elapsed=0:04:31.77    \nframe=  190 fps=0.7 q=31.9 size=     512KiB time=00:00:03.13 bitrate=1338.7kbits/s speed=0.0115x elapsed=0:04:32.30    \nframe=  191 fps=0.7 q=27.9 size=     512KiB time=00:00:03.15 bitrate=1331.6kbits/s speed=0.0115x elapsed=0:04:32.85    \nframe=  191 fps=0.7 q=27.9 size=     512KiB time=00:00:03.15 bitrate=1331.6kbits/s speed=0.0115x elapsed=0:04:33.38    \nframe=  193 fps=0.7 q=32.2 size=     768KiB time=00:00:03.18 bitrate=1976.5kbits/s speed=0.0116x elapsed=0:04:33.90    \nframe=  194 fps=0.7 q=32.3 size=     768KiB time=00:00:03.20 bitrate=1966.2kbits/s speed=0.0117x elapsed=0:04:34.42    \nframe=  194 fps=0.7 q=32.3 size=     768KiB time=00:00:03.20 bitrate=1966.2kbits/s speed=0.0116x elapsed=0:04:34.94    \nframe=  195 fps=0.7 q=33.3 size=     768KiB time=00:00:03.21 bitrate=1956.0kbits/s speed=0.0117x elapsed=0:04:35.46    \nframe=  195 fps=0.7 q=33.3 size=     768KiB time=00:00:03.21 bitrate=1956.0kbits/s speed=0.0117x elapsed=0:04:36.02    \nframe=  196 fps=0.7 q=28.4 size=     768KiB time=00:00:03.23 bitrate=1945.9kbits/s speed=0.0117x elapsed=0:04:36.54    \nframe=  197 fps=0.7 q=31.7 size=     768KiB time=00:00:03.25 bitrate=1935.9kbits/s speed=0.0117x elapsed=0:04:37.05    \nframe=  197 fps=0.7 q=31.7 size=     768KiB time=00:00:03.25 bitrate=1935.9kbits/s speed=0.0117x elapsed=0:04:37.56    \nframe=  197 fps=0.7 q=31.7 size=     768KiB time=00:00:03.25 bitrate=1935.9kbits/s speed=0.0117x elapsed=0:04:38.10    \nframe=  198 fps=0.7 q=33.2 size=     768KiB time=00:00:03.26 bitrate=1926.1kbits/s speed=0.0117x elapsed=0:04:38.62    \nframe=  199 fps=0.7 q=32.3 size=     768KiB time=00:00:03.28 bitrate=1916.3kbits/s speed=0.0118x elapsed=0:04:39.14    \nframe=  199 fps=0.7 q=32.3 size=     768KiB time=00:00:03.28 bitrate=1916.3kbits/s speed=0.0117x elapsed=0:04:39.66    \nframe=  200 fps=0.7 q=24.8 size=     768KiB time=00:00:03.30 bitrate=1906.6kbits/s speed=0.0118x elapsed=0:04:40.19    \nframe=  201 fps=0.7 q=30.4 size=     768KiB time=00:00:03.31 bitrate=1897.0kbits/s speed=0.0118x elapsed=0:04:40.71    \nframe=  202 fps=0.7 q=32.3 size=     768KiB time=00:00:03.33 bitrate=1887.5kbits/s speed=0.0119x elapsed=0:04:41.21    \nframe=  203 fps=0.7 q=33.1 size=     768KiB time=00:00:03.35 bitrate=1878.2kbits/s speed=0.0119x elapsed=0:04:41.74    \nframe=  203 fps=0.7 q=33.1 size=     768KiB time=00:00:03.35 bitrate=1878.2kbits/s speed=0.0119x elapsed=0:04:42.26    \nframe=  204 fps=0.7 q=32.3 size=     768KiB time=00:00:03.36 bitrate=1868.9kbits/s speed=0.0119x elapsed=0:04:42.79    \nframe=  205 fps=0.7 q=26.5 size=     768KiB time=00:00:03.38 bitrate=1859.6kbits/s speed=0.0119x elapsed=0:04:43.32    \nframe=  205 fps=0.7 q=26.5 size=     768KiB time=00:00:03.38 bitrate=1859.6kbits/s speed=0.0119x elapsed=0:04:43.85    \nframe=  206 fps=0.7 q=30.5 size=     768KiB time=00:00:03.40 bitrate=1850.5kbits/s speed=0.012x elapsed=0:04:44.39    \nframe=  206 fps=0.7 q=30.5 size=     768KiB time=00:00:03.40 bitrate=1850.5kbits/s speed=0.0119x elapsed=0:04:44.93    \nframe=  208 fps=0.7 q=32.3 size=     768KiB time=00:00:03.43 bitrate=1832.6kbits/s speed=0.012x elapsed=0:04:45.47    \nframe=  208 fps=0.7 q=32.3 size=     768KiB time=00:00:03.43 bitrate=1832.6kbits/s speed=0.012x elapsed=0:04:45.99    \nframe=  208 fps=0.7 q=32.3 size=     768KiB time=00:00:03.43 bitrate=1832.6kbits/s speed=0.012x elapsed=0:04:46.53    \nframe=  209 fps=0.7 q=32.4 size=     768KiB time=00:00:03.45 bitrate=1823.7kbits/s speed=0.012x elapsed=0:04:47.05    \nframe=  210 fps=0.7 q=28.0 size=     768KiB time=00:00:03.46 bitrate=1814.9kbits/s speed=0.0121x elapsed=0:04:47.56    \nframe=  211 fps=0.7 q=32.0 size=     768KiB time=00:00:03.48 bitrate=1806.3kbits/s speed=0.0121x elapsed=0:04:48.08    \nframe=  211 fps=0.7 q=32.0 size=     768KiB time=00:00:03.48 bitrate=1806.3kbits/s speed=0.0121x elapsed=0:04:48.63    \nframe=  213 fps=0.7 q=32.4 size=     768KiB time=00:00:03.51 bitrate=1789.1kbits/s speed=0.0122x elapsed=0:04:49.14    \nframe=  213 fps=0.7 q=32.4 size=     768KiB time=00:00:03.51 bitrate=1789.1kbits/s speed=0.0121x elapsed=0:04:49.66    \nframe=  214 fps=0.7 q=32.2 size=     768KiB time=00:00:03.53 bitrate=1780.7kbits/s speed=0.0122x elapsed=0:04:50.18    \nframe=  214 fps=0.7 q=32.2 size=     768KiB time=00:00:03.53 bitrate=1780.7kbits/s speed=0.0122x elapsed=0:04:50.72    \nframe=  215 fps=0.7 q=24.5 size=     768KiB time=00:00:03.55 bitrate=1772.3kbits/s speed=0.0122x elapsed=0:04:51.25    \nframe=  217 fps=0.7 q=32.2 size=     768KiB time=00:00:03.58 bitrate=1755.9kbits/s speed=0.0123x elapsed=0:04:51.78    \nframe=  218 fps=0.7 q=32.2 size=     768KiB time=00:00:03.60 bitrate=1747.7kbits/s speed=0.0123x elapsed=0:04:52.30    \nframe=  218 fps=0.7 q=32.2 size=     768KiB time=00:00:03.60 bitrate=1747.7kbits/s speed=0.0123x elapsed=0:04:52.84    \nframe=  219 fps=0.7 q=32.3 size=     768KiB time=00:00:03.61 bitrate=1739.7kbits/s speed=0.0123x elapsed=0:04:53.36    \nframe=  219 fps=0.7 q=32.3 size=     768KiB time=00:00:03.61 bitrate=1739.7kbits/s speed=0.0123x elapsed=0:04:53.88    \nframe=  219 fps=0.7 q=32.3 size=     768KiB time=00:00:03.61 bitrate=1739.7kbits/s speed=0.0123x elapsed=0:04:54.40    \nframe=  221 fps=0.7 q=32.1 size=     768KiB time=00:00:03.65 bitrate=1723.8kbits/s speed=0.0124x elapsed=0:04:54.92    \nframe=  222 fps=0.8 q=32.2 size=     768KiB time=00:00:03.66 bitrate=1715.9kbits/s speed=0.0124x elapsed=0:04:55.44    \nframe=  223 fps=0.8 q=32.3 size=     768KiB time=00:00:03.68 bitrate=1708.2kbits/s speed=0.0124x elapsed=0:04:55.95    \nframe=  223 fps=0.8 q=32.3 size=     768KiB time=00:00:03.68 bitrate=1708.2kbits/s speed=0.0124x elapsed=0:04:56.49    \nframe=  224 fps=0.8 q=32.4 size=     768KiB time=00:00:03.70 bitrate=1700.5kbits/s speed=0.0125x elapsed=0:04:57.01    \nframe=  227 fps=0.8 q=33.3 size=     768KiB time=00:00:03.75 bitrate=1677.8kbits/s speed=0.0126x elapsed=0:04:57.53    \nframe=  227 fps=0.8 q=33.3 size=     768KiB time=00:00:03.75 bitrate=1677.8kbits/s speed=0.0126x elapsed=0:04:58.07    \nframe=  228 fps=0.8 q=32.2 size=     768KiB time=00:00:03.76 bitrate=1670.4kbits/s speed=0.0126x elapsed=0:04:58.58    \nframe=  229 fps=0.8 q=32.3 size=     768KiB time=00:00:03.78 bitrate=1663.0kbits/s speed=0.0126x elapsed=0:04:59.10    \nframe=  231 fps=0.8 q=32.2 size=     768KiB time=00:00:03.81 bitrate=1648.5kbits/s speed=0.0127x elapsed=0:04:59.62    \nframe=  232 fps=0.8 q=33.2 size=     768KiB time=00:00:03.83 bitrate=1641.3kbits/s speed=0.0128x elapsed=0:05:00.14    \nframe=  234 fps=0.8 q=33.5 size=     768KiB time=00:00:03.86 bitrate=1627.2kbits/s speed=0.0129x elapsed=0:05:00.65    \nframe=  236 fps=0.8 q=32.6 size=     768KiB time=00:00:03.90 bitrate=1613.3kbits/s speed=0.0129x elapsed=0:05:01.18    \nframe=  239 fps=0.8 q=33.0 size=     768KiB time=00:00:03.95 bitrate=1592.9kbits/s speed=0.0131x elapsed=0:05:01.68    \nframe=  241 fps=0.8 q=34.1 size=     768KiB time=00:00:03.98 bitrate=1579.5kbits/s speed=0.0132x elapsed=0:05:02.20    \nframe=  243 fps=0.8 q=29.3 size=     768KiB time=00:00:04.01 bitrate=1566.4kbits/s speed=0.0133x elapsed=0:05:02.72    \nframe=  245 fps=0.8 q=33.4 size=     768KiB time=00:00:04.05 bitrate=1553.5kbits/s speed=0.0134x elapsed=0:05:03.24    \nframe=  247 fps=0.8 q=33.4 size=     768KiB time=00:00:04.08 bitrate=1540.9kbits/s speed=0.0134x elapsed=0:05:03.75    \nframe=  248 fps=0.8 q=23.6 size=     768KiB time=00:00:04.10 bitrate=1534.6kbits/s speed=0.0135x elapsed=0:05:04.27    \nframe=  250 fps=0.8 q=34.3 size=    1024KiB time=00:00:04.13 bitrate=2029.6kbits/s speed=0.0136x elapsed=0:05:04.78    \nframe=  253 fps=0.8 q=32.4 size=    1024KiB time=00:00:04.18 bitrate=2005.3kbits/s speed=0.0137x elapsed=0:05:05.30    \nframe=  255 fps=0.8 q=34.3 size=    1024KiB time=00:00:04.21 bitrate=1989.5kbits/s speed=0.0138x elapsed=0:05:05.81    \nframe=  257 fps=0.8 q=26.2 size=    1024KiB time=00:00:04.25 bitrate=1973.9kbits/s speed=0.0139x elapsed=0:05:06.33    \nframe=  260 fps=0.8 q=34.3 size=    1024KiB time=00:00:04.30 bitrate=1950.9kbits/s speed=0.014x elapsed=0:05:06.85    \nframe=  261 fps=0.8 q=34.3 size=    1024KiB time=00:00:04.31 bitrate=1943.4kbits/s speed=0.014x elapsed=0:05:07.35    \nframe=  264 fps=0.9 q=34.3 size=    1024KiB time=00:00:04.36 bitrate=1921.1kbits/s speed=0.0142x elapsed=0:05:07.87    \nframe=  266 fps=0.9 q=34.2 size=    1024KiB time=00:00:04.40 bitrate=1906.6kbits/s speed=0.0143x elapsed=0:05:08.40    \nframe=  268 fps=0.9 q=32.6 size=    1024KiB time=00:00:04.43 bitrate=1892.2kbits/s speed=0.0144x elapsed=0:05:08.90    \nframe=  270 fps=0.9 q=34.4 size=    1024KiB time=00:00:04.46 bitrate=1878.1kbits/s speed=0.0144x elapsed=0:05:09.42    \nframe=  273 fps=0.9 q=33.1 size=    1024KiB time=00:00:04.51 bitrate=1857.3kbits/s speed=0.0146x elapsed=0:05:09.94    \nframe=  275 fps=0.9 q=34.3 size=    1024KiB time=00:00:04.55 bitrate=1843.7kbits/s speed=0.0147x elapsed=0:05:10.45    \nframe=  276 fps=0.9 q=34.4 size=    1024KiB time=00:00:04.56 bitrate=1837.0kbits/s speed=0.0147x elapsed=0:05:10.97    \nframe=  280 fps=0.9 q=34.3 size=    1024KiB time=00:00:04.63 bitrate=1810.6kbits/s speed=0.0149x elapsed=0:05:11.49    \nframe=  281 fps=0.9 q=34.4 size=    1024KiB time=00:00:04.65 bitrate=1804.1kbits/s speed=0.0149x elapsed=0:05:12.01    \nframe=  284 fps=0.9 q=34.4 size=    1024KiB time=00:00:04.70 bitrate=1784.9kbits/s speed=0.015x elapsed=0:05:12.51    \nframe=  286 fps=0.9 q=34.4 size=    1024KiB time=00:00:04.73 bitrate=1772.3kbits/s speed=0.0151x elapsed=0:05:13.03    \nframe=  289 fps=0.9 q=34.3 size=    1024KiB time=00:00:04.78 bitrate=1753.8kbits/s speed=0.0153x elapsed=0:05:13.56    \nframe=  291 fps=0.9 q=34.3 size=    1024KiB time=00:00:04.81 bitrate=1741.7kbits/s speed=0.0153x elapsed=0:05:14.06    \nframe=  293 fps=0.9 q=33.1 size=    1024KiB time=00:00:04.85 bitrate=1729.7kbits/s speed=0.0154x elapsed=0:05:14.58    \nframe=  295 fps=0.9 q=34.2 size=    1024KiB time=00:00:04.88 bitrate=1717.9kbits/s speed=0.0155x elapsed=0:05:15.10    \nframe=  298 fps=0.9 q=32.7 size=    1024KiB time=00:00:04.93 bitrate=1700.5kbits/s speed=0.0156x elapsed=0:05:15.60    \n[mp4 @ 000002ad6b84a700] Starting second pass: moving the moov atom to the beginning of the file\n[out#0/mp4 @ 000002ad6b84a600] video:1209KiB audio:0KiB subtitle:0KiB other streams:0KiB global headers:2KiB muxing overhead: 0.556372%\nframe=  300 fps=0.9 q=34.4 Lsize=    1216KiB time=00:00:04.96 bitrate=2005.8kbits/s speed=0.0157x elapsed=0:05:15.84    \nx265 [info]: frame I:      2, Avg QP:30.39  kb/s: 21996.72\nx265 [info]: frame P:     62, Avg QP:27.83  kb/s: 4472.64 \nx265 [info]: frame B:    236, Avg QP:33.35  kb/s: 1154.87 \nx265 [info]: Weighted P-Frames: Y:0.0% UV:0.0%\n\nencoded 300 frames in 315.66s (0.95 fps), 1979.49 kb/s, Avg QP:32.19\n",
  "seconds": 316.09323382377625,
  "probe_out": {}
}